<svg width="90" height="18" viewBox="0 0 90 18" fill="none" xmlns="http://www.w3.org/2000/svg">
<path d="M20.6686 16.9549H24.6736V0.791868H20.6686V16.9549ZM40.9796 6.15569C40.9796 3.22347 38.9771 0.791868 34.8291 0.791868H26.4615V16.9549H30.3235V4.22471H35.1152C36.1164 4.1532 36.9746 4.86837 37.0461 5.86962C37.0461 5.94114 37.0461 6.08417 37.0461 6.15569C37.1177 7.15694 36.331 8.01515 35.3297 8.01515C35.1867 8.01515 35.1152 8.01515 34.9721 8.01515H31.6108L36.6885 16.9549H40.7651L37.3322 11.0904C39.5493 10.5183 41.0511 8.44426 40.9796 6.15569ZM8.15301 0.791868L0 16.9549H4.8632L6.079 14.3802H11.6574L9.94095 10.8759H7.72391L9.79792 6.44176L15.0187 16.9549H19.8819L11.3713 0.791868H8.15301ZM83.9617 7.0139C80.6719 6.29873 79.5991 6.01266 79.5991 4.93989C79.5991 4.01016 80.8149 3.58106 82.6744 3.58106C84.4623 3.65257 86.2503 4.1532 87.8237 5.08293L89.111 1.79311C86.8939 0.791868 84.3908 0.291244 81.9592 0.219727C78.0257 0.219727 75.5226 2.50829 75.5226 5.369C75.5226 8.2297 77.5966 9.4455 81.6016 10.2322C84.7484 10.8759 85.5351 11.305 85.5351 12.2347C85.5351 13.1644 84.2478 13.5935 82.6029 13.5935C80.4573 13.522 78.3118 12.9499 76.3093 12.0201L75.0935 15.3099C77.5251 16.5257 80.1713 17.2409 82.8889 17.3124C87.7521 17.3124 89.7546 14.9524 89.7546 12.2347C89.7546 9.80309 88.0382 7.94363 83.9617 7.0139ZM69.8727 0.72035V9.80309C69.8727 12.5923 68.2278 13.7366 66.2969 13.7366C64.3659 13.7366 62.721 12.5923 62.721 9.80309V0.72035H58.6445V9.87461C58.6445 15.6675 62.0773 17.384 66.2969 17.384C70.5164 17.384 73.9492 15.6675 73.9492 9.87461V0.72035H69.8727ZM55.2116 8.65881C56.2129 7.87211 56.7135 6.5848 56.642 5.369C56.5704 2.79436 54.4964 0.791868 51.9218 0.791868H42.4815V16.9549H52.3509C55.0686 17.0264 57.2856 14.8808 57.4287 12.2347C57.3572 10.7328 56.5704 9.30247 55.2116 8.65881ZM46.3434 4.22471H51.9218C52.7085 4.22471 53.3522 4.79686 53.3522 5.58355C53.3522 6.37024 52.7085 6.94239 51.9218 6.94239H46.3434V4.22471ZM52.0648 13.522H46.415V10.3037H52.0648C52.9946 10.3037 53.7097 11.0189 53.7813 11.8771C53.7097 12.8783 52.9231 13.5935 52.0648 13.522Z" fill="#BEC2C9"/>
</svg>
