<svg width="23" height="13" viewBox="0 0 23 13" fill="none" xmlns="http://www.w3.org/2000/svg">
<path d="M16.6739 1.07336C16.2402 0.639609 15.6618 0.639609 15.3727 1.07336L9.87849 6.56752L11.1797 7.86877L16.6739 2.37461C17.1077 2.08544 17.1077 1.50711 16.6739 1.07336ZM20.8668 1.07336L11.3243 10.6159L7.99891 7.29044C7.56516 6.85669 6.98682 6.85669 6.69766 7.29044C6.40849 7.72419 6.26391 8.30252 6.69766 8.59169L10.746 12.64C11.1797 13.0738 11.7581 13.0738 12.0472 12.64L22.3127 2.37461C22.7464 1.94086 22.7464 1.36253 22.3127 1.07336C21.7343 0.639609 21.156 0.639609 20.8668 1.07336ZM1.05891 8.59169L5.10724 12.64C5.54099 13.0738 6.11932 13.0738 6.40849 12.64L7.13141 11.9171L2.50474 7.29044C2.07099 6.85669 1.49266 6.85669 1.05891 7.29044C0.625159 7.72419 0.769742 8.30252 1.05891 8.59169Z" fill="white"/>
</svg>
