<svg width="74" height="20" viewBox="0 0 74 20" fill="none" xmlns="http://www.w3.org/2000/svg">
<path d="M42.9563 18.5986C42.6702 18.6701 42.3841 18.6701 42.098 18.5986C41.8835 18.5986 41.812 18.5271 41.812 18.4556C41.812 18.3841 41.6689 12.0905 41.6689 9.65891V7.72794L42.0265 7.65642C42.3126 7.5849 42.5987 7.51338 42.8847 7.5849C43.1708 7.5849 43.5284 7.65642 43.743 7.79945C44.6727 8.22856 45.2448 9.37284 45.5309 11.0177C45.6024 12.019 45.6024 13.0918 45.5309 14.093C45.3163 15.9525 44.6727 17.3828 43.886 18.098C43.6714 18.3841 43.3138 18.5271 42.9563 18.5986ZM45.6024 6.08303C45.1733 6.01151 44.8157 6.01151 44.3866 6.01151C43.5999 6.01151 42.8847 6.15455 42.1696 6.51214L41.7405 6.72669C41.7405 6.72669 41.7405 5.36785 41.7405 3.65143C41.812 2.65018 41.812 1.64894 41.7405 0.576172C41.5974 0.576172 36.1621 1.57742 36.1621 1.64894C36.1621 1.72045 36.0906 1.79197 36.0906 2.00652C36.0906 2.2926 36.0906 2.2926 36.7342 2.43563C36.9488 2.43563 37.0918 2.50715 37.2348 2.65018C37.5209 2.93625 37.664 3.22232 37.7355 3.65143C37.807 4.00902 37.8785 4.29509 37.8785 6.86972C37.8785 9.44436 37.8785 12.2335 37.8785 17.1683V19.2423L38.2361 19.3138C38.8082 19.4568 40.3816 19.6714 40.8822 19.7429C41.955 19.8144 42.9563 19.8144 44.029 19.7429C46.3891 19.4568 48.3916 17.955 49.2498 15.7379C49.5359 15.0227 49.6789 14.3076 49.7504 13.5924C49.822 12.5911 49.822 11.5899 49.6789 10.6602C49.1783 8.15704 47.6764 6.51214 45.6024 6.08303ZM37.0203 6.29758C37.0203 6.44062 35.733 9.80195 35.6615 9.87347C35.4469 9.80195 35.3039 9.73043 35.0893 9.65891C34.5887 9.37284 34.0166 9.30132 33.5159 9.22981C32.9438 9.22981 32.3716 9.37284 31.871 9.80195C31.728 9.94498 31.728 9.94498 31.728 11.876C31.728 13.8069 31.728 16.0955 31.871 17.0252C31.9425 17.8119 32.1571 18.241 32.5862 18.3841C33.0153 18.4556 33.5159 18.5271 33.945 18.5986C33.945 18.7417 33.945 18.8847 33.945 19.0277V19.4568H30.0116C27.866 19.4568 26.0781 19.4568 26.0781 19.4568C26.0781 19.4568 26.0066 19.3138 26.0066 19.0277V18.6701H26.2211L26.7218 18.5986C27.2224 18.5271 27.58 18.1695 27.6515 17.6689C27.866 16.0955 27.9376 14.5221 27.866 12.9487C27.866 9.44436 27.7945 8.65767 27.4369 8.22856C27.2224 7.94249 27.0793 7.87097 26.6502 7.79945L26.0781 7.72794C25.9351 7.72794 25.9351 7.65642 25.9351 7.44187C25.9351 7.1558 25.9351 7.1558 26.0781 7.08428C26.2211 7.01276 31.4419 5.94 31.585 5.94H31.728V6.72669C31.728 7.1558 31.728 7.79945 31.6565 8.08552V8.65767L31.871 8.30008C32.3716 7.37035 33.0868 6.58365 34.0881 6.15455C34.5172 5.94 35.0178 5.86848 35.5184 5.86848C36.2336 5.86848 36.9488 6.08303 36.9488 6.3691L37.0203 6.29758ZM57.6889 11.1608L55.7579 11.2323H54.7567V11.0177C54.7567 10.8032 54.8282 10.5171 54.8282 10.3026C55.1858 8.15704 55.9725 6.94124 56.9022 6.94124C57.9034 6.94124 58.4041 8.22856 58.4756 10.5171V11.1608H57.6889ZM59.6914 6.29758C57.975 5.58241 56.044 5.65392 54.3991 6.44062C52.8257 7.22731 51.6814 8.58615 51.1808 10.2311C50.8947 11.1608 50.7517 12.0905 50.8232 13.0918C50.8232 13.5924 50.8232 14.093 50.9662 14.5936C51.4669 17.1683 53.4693 19.1708 56.044 19.5999C56.8307 19.6714 57.6889 19.6714 58.4756 19.5999C59.3338 19.4568 60.1205 19.1708 60.8357 18.6701C61.5508 18.1695 62.3375 17.4543 62.3375 17.1683C62.3375 16.8822 62.123 16.7392 61.98 16.7392C61.8369 16.8107 61.6939 16.8822 61.5508 16.9537C60.8357 17.3828 60.049 17.6689 59.1908 17.5974C58.0465 17.6689 56.9737 17.2398 56.187 16.4531C55.901 16.167 55.6864 15.8809 55.4718 15.5234C55.0427 14.6651 54.7567 13.6639 54.7567 12.6627V12.2335H58.6186H62.4806V11.9475C62.4806 11.6614 62.4806 11.3753 62.4091 11.0893C62.1945 8.72918 61.2648 7.08428 59.6914 6.29758ZM73.2082 15.3803C73.2797 15.8094 73.2082 16.2385 73.0652 16.6676C72.5646 18.1695 71.2772 19.2423 69.7754 19.5283C69.2032 19.6714 68.5596 19.7429 67.9874 19.6714C67.3438 19.6714 66.7001 19.6714 66.5571 19.6714C65.5558 19.5283 64.5546 19.3138 63.6249 19.0277L63.4103 18.9562V17.7404C63.4103 17.0967 63.4103 16.167 63.3388 15.7379V14.9512L63.4818 14.8797C63.5533 14.8797 63.6249 14.8797 63.7679 14.8797H63.9824L64.1255 15.3088C64.8407 17.0252 65.6989 18.0265 66.7716 18.241C67.2723 18.3841 67.7729 18.3841 68.2735 18.241C69.0602 18.0265 69.6323 17.2398 69.6323 16.3816C69.6323 15.3088 69.0602 14.8082 66.9147 13.95C65.9849 13.6639 65.1982 13.2348 64.5546 12.5196C63.9824 11.876 63.6249 11.0893 63.6249 10.2311C63.5533 9.08677 63.9824 8.01401 64.7691 7.1558C65.6989 6.29758 66.9147 5.79696 68.1305 5.72544C69.5608 5.65392 71.0627 5.86848 72.4215 6.29758L72.6361 6.3691V7.44187C72.6361 8.01401 72.7076 8.8007 72.7076 9.22981V9.94498L72.493 10.0165C72.0639 10.1595 72.0639 10.1595 71.8494 9.5874C71.2057 7.94249 70.4906 7.1558 69.3463 6.86972C68.4165 6.65517 67.4868 7.22731 67.2723 8.15704C67.2723 8.30008 67.2007 8.44311 67.2007 8.51463C67.1292 8.94374 67.2723 9.44436 67.6298 9.73043C68.345 10.3741 69.2032 10.8747 70.133 11.1608C71.8494 11.876 72.6361 12.5196 73.0652 13.3778C73.2082 14.093 73.3513 14.7367 73.2082 15.3803ZM7.0544 2.65018C6.98288 3.15081 6.91136 6.51214 6.91136 8.08552V9.65891H7.41199C7.69806 9.65891 8.19868 9.65891 8.55627 9.5874C8.91386 9.5874 9.19993 9.51588 9.55752 9.44436C10.2012 9.08677 10.7018 8.3716 10.7733 7.5849L10.9164 7.08428H11.3455H11.7746V13.3778H11.3455H10.9164L10.7733 12.8772C10.6303 12.0905 10.2012 11.4469 9.55752 11.0177C8.84234 10.8747 8.19868 10.8032 7.48351 10.8032H6.91136V12.019C6.91136 13.3063 6.98288 15.0943 7.0544 16.024C7.19743 17.3828 7.4835 18.098 8.12716 18.3125C8.41323 18.3841 8.69931 18.4556 8.91386 18.5271C9.12841 18.5271 9.41448 18.5986 9.62903 18.6701C9.77207 18.7417 9.77207 19.3853 9.62903 19.4568C9.486 19.5283 0.260223 19.4568 0.188705 19.4568C0.117188 19.4568 0.117188 19.2423 0.117188 18.9562C0.117188 18.5271 0.117188 18.5271 0.903882 18.3841C1.33299 18.3841 1.76209 18.1695 2.04816 17.7404C2.62031 17.0252 2.69182 15.5949 2.69182 9.87347C2.69182 4.43812 2.62031 3.36536 2.04816 2.50715C1.69058 2.07804 1.18995 1.86349 0.617811 1.86349L0.117188 1.79197V1.36287V0.93376H0.260223C0.33174 0.93376 3.69307 0.93376 7.69806 0.93376H14.9213V1.14831C14.9213 1.29135 14.9929 2.43563 14.9929 3.79447V6.22607L14.7068 6.29758C14.1346 6.44062 14.1346 6.44062 13.9201 5.79696C13.2764 4.15205 12.5613 3.22232 11.6315 2.7217C10.9879 2.36411 10.6303 2.36411 8.77082 2.36411H7.0544V2.65018ZM20.2136 18.6701C18.7833 19.0992 17.7105 17.7404 17.3529 14.8797C17.2099 13.3778 17.2099 11.876 17.3529 10.3741C17.639 8.08552 18.3542 6.86972 19.4985 6.86972C19.9276 6.86972 20.4282 7.01276 20.7143 7.37035C21.644 8.30008 22.0731 10.1595 22.0731 12.9487C22.0731 15.2373 21.8586 16.6676 21.3579 17.5974C21.0719 18.098 20.7143 18.4556 20.2136 18.6701ZM26.0781 11.6614C25.792 9.30132 24.7908 7.65642 23.2174 6.65517C21.2149 5.58241 18.7833 5.51089 16.7093 6.51214C15.2074 7.29883 14.1346 8.58615 13.634 10.1595C13.1334 11.9475 13.1334 13.8069 13.634 15.5949C13.9201 16.5246 14.4207 17.4543 15.1359 18.098C15.9941 18.9562 17.1384 19.5283 18.3542 19.6714C19.1409 19.7429 19.9276 19.7429 20.7143 19.6714C21.0003 19.5999 21.2864 19.5283 21.5725 19.4568C23.861 18.8132 25.649 16.8107 26.0066 14.4506C26.2211 13.5209 26.2211 12.5196 26.0781 11.6614Z" fill="#BEC2C9"/>
</svg>
