<svg width="98" height="17" viewBox="0 0 98 17" fill="none" xmlns="http://www.w3.org/2000/svg">
<path d="M54.6271 0.00585938L51.6949 2.22291L50.2645 7.30066L51.9094 9.66074H56.7011L55.6998 13.1651H51.7664L52.267 11.4487H49.1202L48.4766 13.8803L50.1215 16.2404H55.6283L58.6321 13.9518L59.9909 8.80253L58.346 6.51397H53.6258L54.5556 3.08112H58.489L57.9884 4.72602H61.1352L61.8504 2.22291L60.2055 0.00585938H54.6271Z" fill="#BEC2C9"/>
<path d="M66.5697 0.00585938L63.6375 2.22291L60.3477 13.9518L62.0641 16.2404H67.5709L70.5747 13.9518L71.4329 10.662H68.3576L67.6425 13.1651H63.709L66.4982 3.08112H70.4316L69.7165 5.58424H72.8632L73.793 2.22291L72.1481 0.00585938H66.5697Z" fill="#BEC2C9"/>
<path d="M88.1658 0.00585938L83.6602 16.2404H86.8069L88.1658 11.3772H90.7404L91.3125 16.2404H94.3878L93.7441 10.7335L95.9612 8.94557L97.8207 2.29442L96.0327 0.00585938H88.1658ZM90.3828 3.08112H94.3163L92.8859 8.30191H88.9525L90.3828 3.08112Z" fill="#BEC2C9"/>
<path d="M35.4582 0.00585938L32.955 9.16012L31.4532 0.00585938H28.3064L23.8008 16.2404H26.9476L29.5222 7.01459L31.0956 16.2404H34.0993L38.6049 0.00585938H35.4582Z" fill="#BEC2C9"/>
<path d="M42.6848 0.00585938L39.7526 2.22291L35.8906 16.1688H38.9659L40.3247 11.3056H44.2582L42.8994 16.1688H45.9746L49.9081 2.22291L48.2632 0.00585938H42.6848ZM42.6133 3.08112H46.5468L45.1164 8.30191H41.1829L42.6133 3.08112Z" fill="#BEC2C9"/>
<path d="M78.4426 0.00585938L75.5104 2.22291L71.6484 16.1688H74.7952L76.1541 11.3056H80.0875L78.7287 16.1688H81.8755L85.7374 2.22291L84.0925 0.00585938H78.4426ZM78.4426 3.08112H82.3761L80.9457 8.30191H77.0123L78.4426 3.08112Z" fill="#BEC2C9"/>
<path d="M20.4392 0.00585938L15.9336 16.2404H22.1556L26.5897 0.00585938H20.4392Z" fill="#BEC2C9"/>
<path d="M11.5017 0.00585938L6.99609 16.2404H9.99983L14.5054 0.00585938H11.5017Z" fill="#BEC2C9"/>
<path d="M15.7205 0.00585938L11.2148 16.2404H14.2186L18.6527 0.00585938H15.7205Z" fill="#BEC2C9"/>
<path d="M4.84936 0.00634766L0.34375 16.2409H2.20321L6.70882 0.00634766H4.84936Z" fill="#BEC2C9"/>
<path d="M7.92358 0.00585938L3.41797 16.2404H5.27743L9.78304 0.00585938H7.92358Z" fill="#BEC2C9"/>
</svg>
