<svg width="118" height="26" viewBox="0 0 118 26" fill="none" xmlns="http://www.w3.org/2000/svg">
<path d="M23.8345 3.14698C23.8345 2.71788 23.763 2.50332 23.4054 2.50332H22.8332C22.7617 2.50332 22.7617 2.50332 22.7617 2.36029V2.14574C22.7617 2.07422 22.7617 2.07422 22.9048 2.07422C23.0478 2.07422 23.6199 2.07422 24.8357 2.07422C25.9085 2.07422 26.4806 2.07422 26.6237 2.07422C26.7667 2.07422 26.6952 2.07422 26.6952 2.14574V2.43181C26.6952 2.50332 26.6952 2.50332 26.6237 2.50332H26.123C25.837 2.50332 25.5509 2.71788 25.4794 3.00395C25.4794 3.14698 25.4794 3.93368 25.4794 4.64885V6.29376C25.4794 6.93742 25.4794 7.86715 25.4794 8.29625C25.4794 8.8684 25.6224 9.44054 25.9085 9.86964C26.3376 10.4418 26.9813 10.7279 27.6249 10.6563C28.2686 10.6563 28.8407 10.4418 29.3413 10.0127C29.842 9.36902 30.128 8.65384 30.0565 7.79563V5.57858C30.0565 4.72037 29.985 3.93368 29.9135 3.07547C29.9135 2.71788 29.6989 2.50332 29.4129 2.50332H28.9838C28.9122 2.50332 28.9122 2.50332 28.9122 2.43181V2.14574C28.9122 2.07422 28.9122 2.07422 28.9838 2.07422C29.0553 2.07422 29.6989 2.07422 30.5571 2.07422C31.4154 2.07422 31.7729 2.07422 31.8445 2.07422C31.916 2.07422 31.9875 2.07422 31.9875 2.14574V2.43181C31.9875 2.50332 31.9875 2.57484 31.916 2.57484H31.4869C31.2008 2.57484 30.9862 2.7894 30.9862 3.07547C30.9862 3.07547 30.9862 3.07547 30.9862 3.14698C30.9862 3.29002 30.9862 5.14948 30.9862 5.29251C30.9862 5.43555 30.9862 7.72411 30.9147 8.22474C30.9147 9.15447 30.5571 10.0842 29.842 10.7279C29.1983 11.3 28.3401 11.5861 27.5534 11.5145C26.9097 11.5145 26.3376 11.443 25.7655 11.2285C25.0503 10.9424 24.4781 10.2987 24.2636 9.51205C24.049 8.51081 23.9775 7.43804 24.049 6.36528V3.14698H23.8345Z" fill="#BEC2C9"/>
<path d="M32.2699 8.36748C32.3414 8.36748 32.3414 8.36748 32.3414 8.439C32.3414 8.93962 32.5559 9.44024 32.842 9.94087C33.1996 10.513 33.8433 10.8706 34.4869 10.8706C35.3451 10.9421 36.0603 10.2269 36.1318 9.36873C36.1318 9.36873 36.1318 9.36873 36.1318 9.29721C36.1318 8.08141 35.5597 7.72382 34.2724 7.2232C33.6287 6.93713 32.985 6.57954 32.4129 6.15043C31.9838 5.64981 31.6977 5.00615 31.7692 4.29098C31.7692 3.5758 32.0553 2.93214 32.6275 2.50303C33.1281 2.07393 33.7717 1.85938 34.4154 1.85938C34.9875 1.85938 35.4882 1.93089 35.9888 2.14545C36.0603 2.21696 36.2033 2.21696 36.2749 2.14545L36.4179 2.00241C36.4894 1.93089 36.5609 1.93089 36.5609 1.93089C36.6324 1.93089 36.6324 2.00241 36.6324 2.14545C36.6324 2.28848 36.847 4.14794 36.847 4.29098C36.847 4.43401 36.847 4.36249 36.7755 4.36249L36.5609 4.43401C36.4894 4.43401 36.4894 4.43401 36.4179 4.36249V4.29098C36.2749 3.79035 35.9888 3.28973 35.6312 2.93214C35.2736 2.57455 34.8445 2.36 34.3439 2.43152C33.5572 2.36 32.985 3.00366 32.9135 3.71883C32.842 4.14794 32.985 4.57705 33.2711 4.86312C33.7002 5.2207 34.2724 5.50678 34.8445 5.64981C35.5597 5.79285 36.1318 6.15043 36.6324 6.65106C37.0615 7.15168 37.3476 7.79534 37.2761 8.51052C37.3476 10.0124 36.2749 11.2997 34.773 11.3712C34.7015 11.3712 34.6299 11.3712 34.5584 11.3712C33.7717 11.4427 33.0566 11.2282 32.4129 10.7276C32.2699 10.656 32.1983 10.5845 32.1268 10.5845C32.0553 10.5845 31.9838 10.656 31.9123 10.7991C31.8408 10.9421 31.7692 10.9421 31.6977 10.9421C31.6262 10.9421 31.5547 10.8706 31.5547 10.7276C31.5547 10.5845 31.7692 8.439 31.7692 8.29596C31.7692 8.15293 31.7692 8.22445 31.8408 8.22445L32.2699 8.36748Z" fill="#BEC2C9"/>
<path d="M46.361 9.08256C46.361 9.15408 46.361 9.15408 46.361 9.2256C45.5743 10.5129 44.1439 11.3711 42.5705 11.3711C41.3547 11.4426 40.1389 11.0135 39.2807 10.1553C38.4225 9.2256 37.9219 7.93828 37.9219 6.65096C37.9219 5.36364 38.351 4.14784 39.2092 3.21811C40.0674 2.28839 41.2832 1.78776 42.499 1.85928C43.3572 1.85928 44.2869 2.07383 45.0736 2.50294C45.2167 2.64597 45.2882 2.64597 45.3597 2.50294V2.14535C45.3597 2.07383 45.4312 2.07383 45.5743 2.07383C45.7173 2.07383 45.7173 2.07383 45.7173 2.28839C45.7173 2.50294 46.0034 4.57695 46.0034 5.00606C46.0034 5.07757 46.0034 5.14909 45.9319 5.14909L45.7173 5.22061C45.6458 5.22061 45.6458 5.22061 45.5743 5.07757C45.3597 4.43391 45.0736 3.86177 44.573 3.36115C44.0009 2.71749 43.2142 2.43142 42.356 2.43142C40.3535 2.43142 39.4953 4.29088 39.4953 6.15034C39.4953 7.36614 39.9244 8.58194 40.6395 9.51167C41.1402 10.1553 41.9269 10.5129 42.7851 10.5129C44.0009 10.5129 45.0736 9.94077 45.7888 9.01104C45.8603 8.93953 45.9319 8.86801 45.9319 8.93953L46.361 9.08256Z" fill="#BEC2C9"/>
<path d="M50.5795 11.1572C49.7928 10.8711 49.2206 10.2275 49.0776 9.44076C48.863 8.368 48.7915 7.36675 48.863 6.29399V3.14721C48.863 2.71811 48.7915 2.50355 48.3624 2.50355H47.7903C47.7187 2.50355 47.7188 2.50355 47.7188 2.36052V2.14597C47.7188 2.07445 47.7187 2.07445 47.8618 2.07445C48.0048 2.07445 48.6485 2.07445 49.5782 2.07445C50.5079 2.07445 51.1516 2.07445 51.2946 2.07445C51.4377 2.07445 51.4377 2.07445 51.4377 2.14597V2.43204C51.4377 2.50355 51.4377 2.50355 51.3661 2.50355H50.7225C50.4364 2.50355 50.1504 2.71811 50.1504 3.00418C50.1504 3.14721 50.1504 4.00542 50.1504 4.64908V5.50729C50.1504 6.22247 50.2219 7.86738 50.2219 8.22496C50.2219 8.79711 50.2934 9.36925 50.5795 9.94139C51.0801 10.585 51.7953 10.9426 52.582 10.8711C53.2971 10.8711 53.9408 10.6566 54.5129 10.1559C55.0135 9.51228 55.2281 8.72559 55.1566 7.86738V5.14971C55.1566 4.14846 55.1566 3.43328 55.0851 3.07569C55.0851 2.78962 54.799 2.50355 54.5129 2.50355H53.9408C53.8693 2.50355 53.8693 2.50355 53.8693 2.43204V2.07445C53.8693 2.00293 53.8693 2.00293 53.9408 2.00293C54.0123 2.00293 54.656 2.00293 55.5142 2.00293C56.3724 2.00293 56.8015 2.00293 56.873 2.00293C56.9445 2.00293 57.016 2.07445 57.016 2.07445V2.36052C57.016 2.43204 57.016 2.50355 56.9445 2.50355H56.4439C55.9433 2.50355 55.9433 2.86114 55.8718 3.00418C55.8002 3.14721 55.8718 5.00667 55.8718 5.14971C55.8718 5.29274 55.8718 7.58131 55.8002 8.08193C55.8002 9.01166 55.4427 9.94139 54.7275 10.585C54.0838 11.1572 53.2256 11.4433 52.2959 11.3717C51.7237 11.4433 51.1516 11.3717 50.5795 11.1572Z" fill="#BEC2C9"/>
<path d="M61.4513 10.5126C61.4513 10.7272 61.5943 10.7987 61.7373 10.7987H62.1664C62.3095 10.7987 62.3095 10.8702 62.3095 10.9417V11.1563C62.3095 11.2278 62.3095 11.2993 62.238 11.2993C62.1664 11.2993 61.6658 11.2278 60.9506 11.2278C60.2355 11.2278 59.8779 11.2993 59.8064 11.2993C59.7348 11.2993 59.7348 11.2278 59.7348 11.1563V10.9417C59.7348 10.8702 59.8063 10.7987 59.8779 10.7987H60.2355C60.3785 10.7987 60.45 10.7272 60.45 10.5126C60.45 10.2981 60.45 9.79744 60.45 9.43985V7.72343C60.45 7.2228 60.45 6.86521 60.0924 6.57914C59.8064 6.36459 59.5203 6.29307 59.1627 6.36459C58.7336 6.36459 58.376 6.57914 58.1614 6.86521C57.9469 7.07977 57.8754 7.43736 57.8754 7.72343V10.4411C57.8754 10.7987 57.8754 10.8702 58.1614 10.8702H58.4475C58.519 10.8702 58.5905 10.9417 58.5905 11.0132V11.2278C58.5905 11.2993 58.5905 11.3708 58.519 11.3708C58.4475 11.3708 58.0899 11.2993 57.4463 11.2993C56.8026 11.2993 56.3735 11.3708 56.302 11.3708C56.2305 11.3708 56.2305 11.2993 56.2305 11.2278V11.0132C56.2305 10.9417 56.2305 10.8702 56.3735 10.8702H56.7311C56.8741 10.8702 56.9456 10.7987 56.9456 10.5841V7.58039C56.9456 7.2228 56.7311 6.93673 56.445 6.7937L56.3735 6.72218C56.302 6.65066 56.302 6.65066 56.302 6.57914V6.50763C56.302 6.43611 56.3735 6.43611 56.445 6.36459L57.5178 5.72093C57.5893 5.64941 57.6608 5.64941 57.7323 5.64941C57.8039 5.64941 57.8039 5.72093 57.8039 5.79245L57.8754 6.57914C58.3045 6.007 58.9481 5.72093 59.5918 5.64941C59.9494 5.64941 60.3785 5.72093 60.6646 5.93548C61.0221 6.22156 61.3082 6.65066 61.3797 7.15128L61.4513 10.5126Z" fill="#BEC2C9"/>
<path d="M62.9497 3.50401C63.0212 3.14642 63.3788 2.86035 63.7364 2.86035C64.094 2.86035 64.38 3.14642 64.38 3.50401C64.38 3.93312 64.094 4.21919 63.6649 4.21919C63.3073 4.21919 63.0212 3.93312 62.9497 3.50401ZM63.5218 7.509C63.5218 7.07989 63.4503 6.86534 62.8066 6.7223C62.7351 6.7223 62.6636 6.65079 62.6636 6.65079V6.50775C62.6636 6.43623 62.6636 6.43623 62.7351 6.43623C63.2358 6.22168 63.6649 6.00713 64.094 5.79258C64.1655 5.72106 64.237 5.72106 64.3085 5.72106C64.38 5.72106 64.38 5.79257 64.38 5.86409C64.38 6.07865 64.38 6.86534 64.38 7.9381V9.36846C64.38 9.86908 64.38 10.3697 64.38 10.5127C64.38 10.7988 64.4516 10.8703 64.5946 10.8703H65.2382C65.3098 10.8703 65.3813 10.9418 65.3813 11.0134V11.2279C65.3813 11.2994 65.3813 11.371 65.2382 11.371C65.0952 11.371 64.5231 11.2994 64.0225 11.2994C63.3073 11.2994 62.8067 11.371 62.6636 11.371C62.5206 11.371 62.5921 11.371 62.5921 11.2994V11.0134C62.5921 10.9418 62.5921 10.9418 62.7351 10.9418H63.3788C63.5218 10.9418 63.5933 10.8703 63.5933 10.6558C63.5933 10.2982 63.5933 9.86908 63.5933 9.51149L63.5218 7.509Z" fill="#BEC2C9"/>
<path d="M68.0299 10.0125C68.2444 9.51189 69.1742 7.29484 69.3172 6.79422C69.3887 6.43663 69.3172 6.22207 69.1026 6.22207H68.8166V6.15056V5.86449C68.8166 5.79297 68.8166 5.79297 68.8881 5.79297C69.0311 5.79297 69.3172 5.86449 69.8893 5.86449C70.4615 5.86449 70.676 5.79297 70.8191 5.79297C70.9621 5.79297 70.9621 5.79297 70.9621 5.936V6.15056C70.9621 6.22207 70.9621 6.29359 70.8906 6.29359H70.676C70.533 6.29359 70.39 6.36511 70.2469 6.43663C69.8178 7.08029 69.5317 7.79546 69.2457 8.51064C69.1026 8.86823 68.1729 11.0853 68.1014 11.1568C68.0299 11.2283 67.9584 11.4429 67.8153 11.4429C67.6723 11.4429 67.6008 11.2998 67.5293 11.1568C67.4577 11.0138 66.5995 8.65367 66.528 8.51064C66.4565 8.3676 65.9559 6.93725 65.8843 6.7227C65.7413 6.36511 65.5983 6.22207 65.3837 6.22207H65.1692C65.0977 6.22207 65.0977 6.15056 65.0977 6.07904V5.86449C65.0977 5.79297 65.0977 5.79297 65.2407 5.79297C65.3837 5.79297 65.5983 5.86449 66.3135 5.86449C67.0286 5.86449 67.3147 5.79297 67.4577 5.79297C67.6008 5.79297 67.6008 5.79297 67.6008 5.86449V6.07904C67.6008 6.15056 67.6008 6.22207 67.5293 6.22207H67.2432C67.1002 6.22207 67.0286 6.29359 67.0286 6.43663C67.1001 6.93725 67.2432 7.43787 67.4577 7.9385C67.3862 8.29609 67.9584 9.79796 68.0299 10.0125Z" fill="#BEC2C9"/>
<path d="M73.5368 7.36597C73.7514 7.36597 73.8944 7.29445 73.8944 7.22294C73.8944 6.93686 73.7514 6.07865 72.8932 6.07865C72.321 6.07865 71.8204 6.43624 71.5343 7.43749H73.5368V7.36597ZM71.4628 7.79508C71.4628 8.00963 71.4628 8.22418 71.4628 8.43874C71.4628 9.72605 72.2495 10.6558 73.2508 10.6558C73.8944 10.6558 74.4666 10.2982 74.8241 9.79757C74.8241 9.72605 74.8957 9.72605 74.9672 9.72605L75.1102 9.79757C75.1817 9.79757 75.1817 9.86909 75.1102 10.0121C74.6096 11.2279 73.2508 11.7285 72.035 11.2279C71.6774 11.0849 71.3198 10.7988 71.1052 10.5127C70.6761 9.94061 70.4616 9.22543 70.5331 8.43874C70.5331 7.65204 70.8192 6.93686 71.3198 6.36472C71.8204 5.8641 72.4641 5.57803 73.1077 5.64955C74.109 5.64955 74.9672 6.50776 74.9672 7.58052C74.9672 7.72356 74.8241 7.79508 74.6096 7.79508H71.4628Z" fill="#BEC2C9"/>
<path d="M76.1844 7.7954C76.1844 7.15174 76.0414 7.00871 75.7553 6.79415L75.5407 6.65112C75.4692 6.65112 75.4692 6.5796 75.4692 6.5796V6.50808C75.4692 6.43657 75.4692 6.43657 75.5407 6.36505L76.685 5.72139C76.7565 5.72139 76.828 5.64987 76.828 5.64987C76.8996 5.64987 76.8996 5.72139 76.8996 5.79291L76.9711 6.65112H77.0426C77.3287 6.07898 77.9008 5.64987 78.5445 5.50684C78.8305 5.50684 79.1166 5.72139 79.1881 6.00746V6.07898C79.1881 6.36505 78.9736 6.65112 78.6875 6.72264C78.5445 6.72264 78.4014 6.65112 78.3299 6.65112C78.1869 6.5796 78.0438 6.50808 77.9008 6.5796C77.6147 6.65112 77.3287 6.79415 77.1856 7.15174C77.1141 7.29478 77.1141 7.43781 77.0426 7.58085V10.2985C77.0426 10.7276 77.1141 10.8707 77.4002 10.8707H77.9723C78.0439 10.8707 78.0439 10.9422 78.0439 11.0137V11.2282C78.0439 11.2998 78.0439 11.3713 77.9723 11.3713C77.9008 11.3713 77.3287 11.2998 76.6135 11.2998C75.8983 11.2998 75.3262 11.3713 75.1831 11.3713C75.0401 11.3713 75.1116 11.3713 75.1116 11.2282V11.0137C75.1116 10.9422 75.1116 10.8707 75.2547 10.8707H75.7553C75.9698 10.8707 76.0414 10.7991 76.0414 10.5846C76.0414 10.1555 76.0414 9.72638 76.0414 9.0112L76.1844 7.7954Z" fill="#BEC2C9"/>
<path d="M79.5439 11.0138C79.4724 10.9423 79.4724 10.8707 79.4724 10.7992L79.2578 9.58342C79.2578 9.5119 79.2578 9.5119 79.3293 9.5119L79.4724 9.44039C79.5439 9.44039 79.5439 9.44039 79.6154 9.5119L79.9015 10.1556C80.116 10.6562 80.3306 10.9423 80.9742 10.9423C81.4749 11.0138 81.904 10.5847 81.9755 10.084C81.9755 9.5119 81.6894 9.15432 80.7597 8.86824C79.973 8.65369 79.2578 8.22459 79.2578 7.22334C79.3293 6.29361 80.116 5.57843 81.0458 5.64995C81.4749 5.64995 81.8324 5.72147 82.19 5.93602C82.4046 6.00754 82.4046 6.07906 82.4046 6.15057L82.6191 7.0803C82.6191 7.15182 82.6191 7.15182 82.5476 7.22334L82.4046 7.29486C82.3331 7.29486 82.3331 7.29486 82.2616 7.22334L81.8324 6.6512C81.6894 6.29361 81.3318 6.15057 80.9742 6.15057C80.4736 6.07906 80.0445 6.50816 79.973 7.00879C79.973 7.79548 80.5451 7.867 81.1888 8.08155C82.1185 8.36762 82.6907 8.72521 82.6907 9.72646C82.6907 10.7277 81.904 11.4429 80.9027 11.4429C80.8312 11.4429 80.8312 11.4429 80.7597 11.4429C80.3306 11.3714 79.9015 11.2283 79.5439 11.0138Z" fill="#BEC2C9"/>
<path d="M83.4782 3.5045C83.5498 3.14691 83.8358 2.86084 84.2649 2.86084C84.6225 2.86084 84.9086 3.14691 84.9086 3.5045C84.9086 3.9336 84.6225 4.21968 84.1934 4.21968C83.8358 4.21968 83.4782 3.9336 83.4782 3.5045ZM84.0504 7.50949C84.0504 7.08038 83.9789 6.86583 83.3352 6.72279C83.2637 6.72279 83.1922 6.65127 83.1922 6.65127V6.50824C83.1922 6.43672 83.1922 6.43672 83.2637 6.43672C83.7643 6.22217 84.1934 6.00762 84.6225 5.79306C84.694 5.72155 84.7656 5.72155 84.8371 5.72155C84.9086 5.72155 84.9086 5.79306 84.9086 5.86458C84.9086 6.07913 84.9086 6.86583 84.9086 7.93859V9.36895C84.9086 9.86957 84.9086 10.3702 84.9086 10.5132C84.9086 10.7993 84.9801 10.8708 85.1231 10.8708H85.6953C85.7668 10.8708 85.8383 10.9423 85.8383 11.0139V11.2284C85.8383 11.2999 85.8383 11.3714 85.6953 11.3714C85.5522 11.3714 84.9801 11.2999 84.4795 11.2999C83.7643 11.2999 83.2637 11.3714 83.1206 11.3714C82.9776 11.3714 83.0491 11.3714 83.0491 11.2999V11.0139C83.0491 10.9423 83.0491 10.9423 83.1922 10.9423H83.8358C83.9789 10.9423 84.0504 10.8708 84.0504 10.6563C84.0504 10.2987 84.0504 9.86957 84.0504 9.51198V7.50949V7.50949Z" fill="#BEC2C9"/>
<path d="M87.4818 9.58309C87.4818 10.5843 87.9109 10.7274 88.1254 10.7274C88.4115 10.7274 88.6976 10.6559 88.9836 10.5843C89.0551 10.5128 89.1267 10.5128 89.1267 10.5843L89.1982 10.7274C89.1982 10.7989 89.1982 10.7989 89.1982 10.8704C88.7691 11.228 88.2685 11.371 87.7678 11.371C87.1242 11.371 86.6235 10.8704 86.552 10.2983C86.552 9.79765 86.552 8.65336 86.552 8.43881V8.15274C86.552 7.93819 86.552 7.07998 86.552 6.50783H85.7653C85.6223 6.50783 85.5508 6.43632 85.5508 6.3648C85.5508 6.29328 85.6223 6.22176 85.7653 6.15025C86.3375 5.72114 86.8381 5.149 87.1957 4.50534C87.1957 4.43382 87.2672 4.3623 87.3387 4.3623C87.4102 4.3623 87.4818 4.43382 87.4818 4.57686L87.4102 5.86418H89.1982C89.2697 5.86418 89.3412 5.93569 89.2697 6.00721L89.1267 6.43632C89.1267 6.50783 89.1267 6.50783 88.9836 6.50783H87.3387C87.3387 7.07998 87.3387 7.72363 87.3387 8.29578L87.4818 9.58309Z" fill="#BEC2C9"/>
<path d="M89.7004 14.089C89.7004 13.8029 89.9865 13.5884 90.2726 13.5884C90.4871 13.5884 90.7017 13.6599 90.8447 13.7314C90.9162 13.7314 91.0593 13.7314 91.1308 13.6599C91.4884 12.9447 91.846 12.2296 92.132 11.4429C92.0605 11.1568 90.7017 7.08029 90.6302 6.79422C90.5586 6.50814 90.3441 6.22207 90.058 6.22207H89.7004C89.6289 6.22207 89.6289 6.15056 89.6289 6.07904V5.86449C89.6289 5.79297 89.6289 5.79297 89.7004 5.79297C89.7719 5.79297 90.1295 5.86449 90.8447 5.86449C91.5599 5.86449 91.846 5.79297 92.0605 5.79297C92.2751 5.79297 92.2035 5.86449 92.2035 5.86449V6.15056C92.2035 6.22207 92.2035 6.22207 92.132 6.22207H91.9175C91.7744 6.22207 91.7029 6.29359 91.7744 6.50815C91.846 6.7227 92.7042 9.65492 92.8472 9.94099H92.9187C93.0618 9.72644 94.1345 7.08029 94.206 6.7227C94.2776 6.36511 94.206 6.22207 93.9915 6.22207H93.7769C93.7054 6.22207 93.7054 6.15056 93.7054 6.15056V5.86449C93.7054 5.79297 93.7054 5.79297 93.7769 5.79297C93.8484 5.79297 94.206 5.86449 94.7782 5.86449C95.1358 5.86449 95.4218 5.79297 95.5649 5.79297C95.7079 5.79297 95.6364 5.86449 95.6364 5.86449V6.15056C95.6364 6.22207 95.6364 6.29359 95.5649 6.29359H95.2788C95.1358 6.29359 94.9212 6.36511 94.8497 6.50815C94.1345 7.9385 93.4193 9.36885 92.8472 10.8707C92.2035 12.3011 91.7029 13.5169 91.4884 13.946C91.2738 14.3751 91.0593 14.8042 90.4156 14.8042C90.058 14.8757 89.7719 14.5896 89.7004 14.2321C89.7004 14.1605 89.7004 14.1605 89.7004 14.089Z" fill="#BEC2C9"/>
<path d="M100.858 8.43886C100.858 7.00851 99.8566 6.07878 99.2129 6.07878C98.8553 6.07878 98.4978 6.22182 98.2117 6.50789C97.7111 7.08003 97.425 7.7952 97.568 8.51038C97.4965 9.15404 97.711 9.7977 98.0686 10.2983C98.3547 10.7274 98.7838 11.0135 99.356 10.942C100.214 11.0135 100.858 9.7977 100.858 8.43886ZM97.2104 10.5129C96.7098 9.94073 96.4237 9.15404 96.4953 8.43886C96.4953 7.58065 96.9244 6.86547 97.568 6.36485C98.0686 6.00726 98.6408 5.72119 99.2844 5.72119C99.9281 5.72119 100.572 6.00726 101.072 6.43637C102.217 7.58065 102.217 9.36859 101.072 10.5129C100.572 11.0135 99.8566 11.3711 99.1414 11.3711C98.3547 11.3711 97.6395 11.0135 97.2104 10.5129Z" fill="#BEC2C9"/>
<path d="M103.215 6.4365H102.357C102.285 6.4365 102.285 6.4365 102.285 6.29347L102.357 5.93588C102.357 5.86436 102.428 5.86436 102.5 5.86436H103.215V5.57829C103.143 4.57705 103.501 3.64732 104.073 2.86062C104.574 2.21696 105.36 1.85938 106.147 1.85938C106.719 1.85938 107.291 2.07393 107.291 2.57455C107.291 2.86062 107.077 3.07518 106.719 3.14669C106.576 3.14669 106.505 3.14669 106.362 3.07518C106.219 3.00366 106.147 2.86062 106.076 2.7891C105.933 2.57455 105.718 2.50303 105.503 2.50303C105.146 2.50303 104.788 2.64607 104.574 2.93214C104.145 3.5758 104.145 4.64856 104.145 5.57829V5.86436H105.646C105.718 5.86436 105.718 5.93588 105.718 5.93588L105.646 6.36499C105.646 6.4365 105.575 6.4365 105.503 6.4365H104.145V7.58079C104.145 9.08266 104.145 10.2985 104.145 10.4415C104.145 10.5845 104.216 10.7991 104.502 10.7991H105.217C105.36 10.7991 105.36 10.7991 105.36 10.8706V11.0852C105.36 11.1567 105.36 11.2282 105.289 11.2282C105.217 11.2282 104.717 11.1567 103.787 11.1567C103.072 11.1567 102.428 11.2282 102.357 11.2282C102.285 11.2282 102.285 11.2282 102.285 11.1567V10.8706C102.285 10.7991 102.285 10.7991 102.428 10.7991H103.072C103.286 10.7991 103.358 10.656 103.358 10.37L103.215 6.4365Z" fill="#BEC2C9"/>
<path d="M24.2606 22.8855C24.1175 22.7425 24.046 22.7425 23.9745 22.7425C23.903 22.7425 23.8314 22.814 23.7599 22.957C23.6884 23.1001 23.6169 23.1001 23.5454 23.1001C23.4739 23.1001 23.4023 23.0285 23.4023 22.8855C23.4739 22.5279 23.5454 20.883 23.6169 20.5254C23.6169 20.4539 23.6169 20.4539 23.6884 20.4539H23.903C23.9745 20.4539 23.9745 20.4539 23.9745 20.5254C23.9745 21.026 24.1175 21.5982 24.4036 22.0273C24.7612 22.5994 25.4764 23.0285 26.1915 22.957C27.1213 23.0285 27.8364 22.3134 27.908 21.4552C27.908 21.4552 27.908 21.4552 27.908 21.3836C27.908 20.0248 26.9782 19.5242 25.977 19.1666C25.2618 18.952 24.6897 18.5944 24.1175 18.0938C23.6884 17.5932 23.4023 16.878 23.4739 16.2344C23.5454 15.5907 23.7599 15.0186 24.2606 14.5895C24.7612 14.1604 25.4048 13.9458 26.0485 13.9458C26.5491 13.9458 27.0497 14.0173 27.5504 14.3034C27.6934 14.3749 27.6934 14.3749 27.7649 14.3034L27.908 14.1604C27.9795 14.0888 27.9795 14.0888 28.051 14.0888C28.1225 14.0888 28.1225 14.1604 28.1225 14.3034C28.1225 14.7325 28.2655 16.0913 28.2655 16.3774C28.2655 16.4489 28.2655 16.4489 28.194 16.4489H28.051H27.9795C27.8364 15.8768 27.5504 15.3762 27.1928 14.947C26.8352 14.5895 26.3346 14.3749 25.8339 14.3749C25.0473 14.3749 24.4036 14.947 24.3321 15.7337C24.3321 15.8053 24.3321 15.8768 24.3321 15.8768C24.3321 16.3059 24.4751 16.6635 24.6897 17.0211C25.1188 17.3786 25.6194 17.6647 26.12 17.8078C26.9067 17.9508 27.6219 18.3084 28.1225 18.8805C28.4801 19.3811 28.6947 20.0248 28.6947 20.6685C28.6947 22.1703 27.7649 23.5292 26.12 23.5292C25.5479 23.6007 24.8327 23.3861 24.2606 22.8855Z" fill="#BEC2C9"/>
<path d="M33.844 20.5255C33.844 19.0951 32.8428 18.1654 32.1991 18.1654C31.8416 18.1654 31.484 18.3084 31.1979 18.5945C30.6973 19.1666 30.4112 19.8818 30.5542 20.6685C30.4827 21.3122 30.6973 21.9558 31.0549 22.4565C31.3409 22.8856 31.77 23.1716 32.3422 23.1001C33.2004 23.1716 33.844 21.9558 33.844 20.5255ZM30.1967 22.671C29.1239 21.4552 29.2669 19.5958 30.5542 18.523C30.5542 18.523 30.6258 18.523 30.6258 18.4515C31.627 17.5933 33.1289 17.6648 34.0586 18.5945C35.2029 19.7388 35.2029 21.5267 34.1301 22.671C33.6295 23.1716 32.9143 23.5292 32.1276 23.5292C31.4125 23.5292 30.6973 23.1716 30.1967 22.671Z" fill="#BEC2C9"/>
<path d="M40.0684 20.7397C40.0684 21.3833 40.0684 22.027 40.0684 22.2415C40.14 22.6707 40.2115 22.6707 40.426 22.6707C40.5691 22.6707 40.7121 22.6707 40.8551 22.6707C40.9267 22.6707 40.9982 22.6707 40.9982 22.7422V22.8852C40.9982 22.9567 40.9982 22.9567 40.9267 23.0282L39.5678 23.4573C39.4963 23.4573 39.4248 23.5289 39.2818 23.5289C39.2102 23.5289 39.2102 23.5289 39.1387 23.3858L39.0672 22.6707C38.6381 23.2428 37.9944 23.5289 37.3508 23.6004C36.8502 23.6004 36.421 23.3858 36.135 23.0282C35.6343 22.3131 35.6343 21.9555 35.6343 20.5251V19.0233C35.6343 18.6657 35.4198 18.5941 35.1337 18.5226C34.8477 18.4511 34.8477 18.5226 34.8477 18.4511V18.2366C34.8477 18.165 34.8477 18.165 34.9907 18.165H36.135C36.2065 18.165 36.278 18.165 36.278 18.165H36.6356C36.7071 18.165 36.7786 18.2366 36.7786 18.3081C36.7786 18.3081 36.7786 18.3081 36.7786 18.3796C36.7786 18.5226 36.7071 19.0948 36.7071 19.8815V20.8112C36.6356 21.4549 36.7071 22.17 36.9932 22.7422C37.2077 23.0998 37.5653 23.2428 37.9944 23.2428C38.4235 23.1713 38.7811 22.9567 39.0672 22.5991C39.1387 22.5276 39.2102 22.3846 39.2102 22.2415V19.0948C39.2102 18.7372 38.9957 18.6657 38.6381 18.6657C38.2805 18.6657 38.352 18.6657 38.352 18.5941V18.3796C38.352 18.3081 38.352 18.2366 38.4951 18.2366H39.6393C39.7109 18.2366 39.7824 18.2366 39.8539 18.2366H39.9969C40.0684 18.2366 40.14 18.3081 40.14 18.3081C40.0684 18.8802 40.0684 19.4524 40.0684 20.0245V20.7397Z" fill="#BEC2C9"/>
<path d="M42.8556 21.7413C42.8556 22.7425 43.2847 22.8856 43.4992 22.8856C43.7853 22.8856 44.0714 22.8141 44.3574 22.7425C44.4289 22.671 44.4289 22.671 44.5005 22.7425L44.572 22.8856C44.6435 22.9571 44.6435 22.9571 44.572 23.0286C44.1429 23.3862 43.6422 23.5292 43.1416 23.5292C42.498 23.5292 41.9973 23.0286 41.9258 22.4565C41.9258 21.8843 41.9258 20.8116 41.9258 20.597V20.3109C41.9258 20.0964 41.9258 19.2382 41.9258 18.666H41.2106C41.0676 18.666 40.9961 18.5945 40.9961 18.523C40.9961 18.4515 41.0676 18.38 41.2106 18.3084C41.7828 17.8793 42.2834 17.3072 42.641 16.6635C42.7125 16.592 42.7125 16.5205 42.784 16.5205C42.8556 16.5205 42.9271 16.592 42.9271 16.7351L42.8556 18.0224H44.6435C44.715 18.0224 44.7865 18.0939 44.715 18.1654L44.572 18.5945C44.572 18.666 44.5005 18.666 44.4289 18.666H42.784C42.784 19.2382 42.784 19.8818 42.784 20.454L42.8556 21.7413Z" fill="#BEC2C9"/>
<path d="M45.7876 16.3061C45.7876 15.5194 45.6446 15.3764 45.2155 15.2334L45.0009 15.1619C44.9294 15.1619 44.9294 15.1619 44.9294 15.0903V14.9473C44.9294 14.8758 44.9294 14.8758 45.0724 14.8043L46.3597 14.0891C46.4313 14.0176 46.5743 14.0176 46.6458 14.0176C46.7173 14.0176 46.7889 14.0891 46.7173 14.3752C46.6458 14.6612 46.7173 17.2359 46.7173 17.8795V18.7377H46.7889C47.218 18.2371 47.8616 17.951 48.5053 17.8795C49.0059 17.8795 49.435 18.0226 49.7926 18.3802C50.2217 18.8808 50.4363 19.596 50.3647 20.3111V21.0263C50.3647 21.7415 50.3647 22.5282 50.3647 22.8142C50.3647 23.0288 50.5793 23.0288 50.8654 23.0288H50.9369C51.0084 23.0288 51.0799 23.0288 51.0799 23.1718V23.3864C51.0799 23.4579 51.0799 23.5294 51.0084 23.5294C50.9369 23.5294 50.5078 23.5294 49.7926 23.5294C49.0774 23.5294 48.7198 23.5294 48.5768 23.5294C48.4338 23.5294 48.4338 23.5294 48.4338 23.3864V23.1718C48.4338 23.1003 48.4338 23.0288 48.5053 23.0288H48.7914C49.0059 23.0288 49.292 23.0288 49.292 22.8142C49.292 22.5997 49.292 21.956 49.292 21.5269V20.5257C49.3635 19.9535 49.2205 19.3814 48.8629 18.9523C48.6483 18.7377 48.3622 18.5947 48.0047 18.5947C47.5756 18.5947 47.1464 18.8093 46.8604 19.1668C46.7173 19.3099 46.6458 19.596 46.5743 19.8105V22.6712C46.5743 23.1003 46.5743 23.1718 46.8604 23.1718H47.218C47.2895 23.1718 47.361 23.1718 47.361 23.3149V23.5294C47.361 23.6009 47.361 23.6725 47.218 23.6725C47.0749 23.6725 46.5743 23.6725 46.0022 23.6725C45.43 23.6725 44.8579 23.6725 44.7864 23.6725C44.7148 23.6725 44.7148 23.6725 44.7148 23.5294V23.3149C44.7148 23.2434 44.7864 23.1718 44.9294 23.1718H45.2155C45.43 23.1718 45.5731 23.1003 45.6446 22.9573C45.7161 22.8142 45.7161 21.3124 45.7161 20.4542L45.7876 16.3061Z" fill="#BEC2C9"/>
<path d="M54.0107 19.5242C54.2252 19.5242 54.3683 19.4527 54.3683 19.3811C54.3683 19.0951 54.2252 18.2369 53.367 18.2369C52.7949 18.2369 52.2943 18.5944 52.0082 19.5957H54.0107V19.5242ZM52.0082 19.9533C52.0082 20.1678 51.9367 20.3824 51.9367 20.5969C51.9367 21.8843 52.7234 22.814 53.7246 22.814C54.3683 22.814 54.9404 22.4564 55.2265 21.9558C55.2265 21.8843 55.298 21.8843 55.3695 21.8843L55.5126 21.9558C55.5126 21.9558 55.5841 22.0273 55.5126 22.1703C55.0119 23.3861 53.6531 23.8868 52.4373 23.3861C52.0797 23.2431 51.7221 22.957 51.5076 22.671C51.0785 22.0988 50.8639 21.3836 50.9354 20.5969C50.9354 19.8102 51.2215 19.0951 51.7221 18.5229C52.2227 18.0223 52.8664 17.7362 53.5101 17.8078C54.5113 17.8078 55.3695 18.666 55.3695 19.7387C55.3695 19.9533 55.2265 19.9533 55.0119 19.9533H52.0082Z" fill="#BEC2C9"/>
<path d="M56.6575 19.9536C56.6575 19.3099 56.586 19.1669 56.2284 18.9524L55.9423 18.8093C55.8708 18.8093 55.8708 18.8093 55.8708 18.7378V18.6663C55.8708 18.5948 55.8708 18.5948 55.9423 18.5232L57.2296 17.8796C57.3012 17.8796 57.3727 17.8081 57.3727 17.8081C57.4442 17.8081 57.4442 17.8796 57.4442 17.9511L57.5157 18.8093H57.5872C57.8733 18.2372 58.4454 17.8081 59.0891 17.665C59.3752 17.665 59.6612 17.8796 59.7328 18.1657V18.2372C59.7328 18.5233 59.5182 18.8093 59.2321 18.8808C59.0891 18.8808 58.9461 18.8093 58.8745 18.8093C58.7315 18.7378 58.5885 18.7378 58.4454 18.7378C58.0879 18.7378 57.8018 18.9524 57.6587 19.3099C57.5872 19.453 57.5872 19.596 57.5157 19.7391V22.4567C57.5157 22.8858 57.5872 22.9573 57.8733 22.9573H58.4454C58.517 22.9573 58.517 23.0289 58.517 23.1004V23.3149C58.517 23.3864 58.517 23.458 58.4454 23.458C58.3739 23.458 57.8018 23.458 57.0866 23.458C56.3714 23.458 55.7993 23.458 55.7278 23.458C55.6562 23.458 55.6562 23.458 55.6562 23.3149V23.1004C55.6562 23.0289 55.6563 22.9573 55.7993 22.9573H56.2999C56.5145 22.9573 56.586 22.8858 56.586 22.7428C56.586 22.3137 56.586 21.8846 56.586 21.1694L56.6575 19.9536Z" fill="#BEC2C9"/>
<path d="M65.2418 22.6709C65.2418 22.8854 65.3849 22.9569 65.5279 22.9569H65.957C66.1 22.9569 66.1 23.0285 66.1 23.1V23.3145C66.1 23.386 66.1 23.4576 66.0285 23.4576C65.957 23.4576 65.5279 23.4576 64.8127 23.4576C64.0975 23.4576 63.7399 23.4576 63.6684 23.4576C63.5969 23.4576 63.5969 23.4576 63.5969 23.3145V23.1C63.5969 23.0285 63.5969 22.9569 63.7399 22.9569H64.0975C64.2406 22.9569 64.3121 22.8854 64.3836 22.6709C64.4551 22.4563 64.3836 21.9557 64.3836 21.5981V19.8817C64.3836 19.3811 64.3836 19.0235 64.026 18.7374C63.7399 18.5228 63.4539 18.4513 63.0963 18.5228C62.6672 18.5228 62.3096 18.7374 62.095 19.0235C61.8805 19.238 61.809 19.5956 61.809 19.8817V22.5993C61.809 22.9569 61.8805 23.0285 62.095 23.0285H62.3811C62.5241 23.0285 62.5241 23.1 62.5241 23.1715V23.386C62.5241 23.4576 62.5241 23.5291 62.4526 23.5291C62.3811 23.5291 62.0235 23.5291 61.3799 23.5291C60.7362 23.5291 60.3071 23.5291 60.2356 23.5291C60.1641 23.5291 60.1641 23.5291 60.1641 23.386V23.1715C60.1641 23.1 60.1641 23.0285 60.3071 23.0285H60.6647C60.8077 23.0285 60.8792 23.0285 60.8792 22.7424V19.7386C60.8792 19.3811 60.6647 19.095 60.3786 18.9519L60.2356 18.8804C60.1641 18.8804 60.1641 18.8089 60.1641 18.7374V18.6659C60.1641 18.5944 60.2356 18.5228 60.3071 18.5228L61.3799 17.8792C61.4514 17.8077 61.5229 17.8077 61.5944 17.8077C61.6659 17.8077 61.6659 17.8792 61.7374 17.9507L61.809 18.7374C62.2381 18.1653 62.8817 17.8792 63.5254 17.8077C64.3836 17.7361 65.1703 18.3798 65.2418 19.3095V22.6709V22.6709Z" fill="#BEC2C9"/>
<path d="M71.4643 22.3851C70.6061 21.3838 70.1055 20.0965 70.1055 18.7377C70.1055 17.4503 70.5346 16.2345 71.3928 15.3048C72.251 14.4466 73.3953 13.946 74.5396 14.0175C75.4693 14.0175 76.3275 14.3036 77.1142 14.7327C77.2572 14.8042 77.3287 14.8042 77.4003 14.7327L77.4718 14.3751C77.4718 14.3036 77.5433 14.3036 77.6148 14.3036C77.6863 14.3036 77.7579 14.3036 77.7579 14.5181C77.7579 14.7327 77.9724 16.6637 78.0439 17.0212C78.0439 17.0928 78.0439 17.1643 77.9724 17.1643L77.7579 17.2358C77.6863 17.2358 77.6863 17.2358 77.6148 17.1643C77.4003 16.5921 77.0427 16.02 76.6136 15.5194C76.0414 14.8757 75.3263 14.5181 74.468 14.5181C72.1795 14.5181 71.3213 16.5921 71.3213 18.4516C71.3213 19.6674 71.7504 20.8117 72.5371 21.8129C73.1092 22.5281 74.0389 22.9572 74.9687 22.8857C76.1845 22.8857 77.4003 22.242 78.1154 21.2408C78.1154 21.1693 78.187 21.1693 78.187 21.1693L78.33 21.3123C78.33 21.3123 78.4015 21.3838 78.33 21.4553C77.5433 22.7427 76.1129 23.6009 74.5396 23.6009C73.4668 23.6009 72.3225 23.1718 71.4643 22.3851Z" fill="#BEC2C9"/>
<path d="M81.5458 20.5259C81.1167 20.8835 79.8294 21.1696 79.8294 22.2424C79.7579 22.5999 80.0439 22.886 80.4015 22.9575C80.473 22.9575 80.473 22.9575 80.5445 22.9575C80.9021 22.9575 81.5458 22.5284 81.5458 22.1708V20.5259ZM82.4755 21.8133C82.4755 22.5284 82.6186 22.8145 82.8331 22.8145C82.9761 22.8145 83.1907 22.743 83.2622 22.5999C83.3337 22.5284 83.3337 22.5284 83.4053 22.5284L83.5483 22.5999C83.5483 22.6715 83.6198 22.6715 83.5483 22.8145C83.4053 23.1721 82.9761 23.4582 82.547 23.4582C82.0464 23.4582 81.6888 23.0291 81.6888 22.5999C81.3312 22.9575 80.9021 23.2436 80.4015 23.3866C80.187 23.4582 79.9009 23.4582 79.6863 23.4582C79.4003 23.4582 78.8996 23.1721 78.8996 22.3854C78.8996 21.8133 79.1857 21.3126 80.187 20.812C80.6876 20.5975 81.1882 20.3829 81.6173 20.0968V19.3101C81.6173 19.0956 81.5458 18.8095 81.4743 18.595C81.2597 18.3804 80.9737 18.3089 80.6876 18.3089C80.4015 18.3089 80.1154 18.3804 79.8294 18.595C79.6863 18.738 79.7579 18.9525 79.7579 19.1671C79.7579 19.5962 79.6148 19.8823 79.1142 19.8823C78.8996 19.8823 78.8281 19.7392 78.8281 19.4532C78.8996 18.9525 79.2572 18.4519 79.6863 18.2374C80.1154 17.9513 80.6876 17.8083 81.2597 17.8083C81.6173 17.7367 81.9749 17.8798 82.261 18.1659C82.4755 18.4519 82.547 18.738 82.547 19.0956V21.8133H82.4755Z" fill="#BEC2C9"/>
<path d="M85.6949 19.5245C85.6949 20.1681 85.6949 22.1706 85.6949 22.5282C85.6949 22.7428 85.7665 22.9573 86.0525 22.9573H86.6247C86.7677 22.9573 86.7677 23.0288 86.7677 23.1004V23.3149C86.7677 23.3864 86.7677 23.4579 86.6962 23.4579C86.6247 23.4579 86.0525 23.4579 85.2658 23.4579C84.4791 23.4579 83.9785 23.4579 83.8355 23.4579C83.6925 23.4579 83.764 23.3864 83.764 23.3149V23.1004C83.764 23.0288 83.764 22.9573 83.907 22.9573H84.4792C84.6222 22.9573 84.7652 22.8858 84.7652 22.5997C84.7652 22.1706 84.7652 19.9536 84.7652 19.2384V18.4517C84.7652 17.522 84.7652 16.3777 84.7652 16.0201C84.7652 15.6625 84.4792 15.3049 84.1216 15.2334L83.8355 15.1619C83.764 15.1619 83.764 15.1619 83.764 15.0904V15.0189C83.764 14.9473 83.8355 14.9473 83.907 14.9473C84.4076 14.7328 84.9083 14.4467 85.4089 14.2322C85.4804 14.1606 85.5519 14.1606 85.6949 14.1606C85.7665 14.1606 85.838 14.2322 85.7665 14.3752C85.7665 15.0904 85.6949 17.808 85.6949 18.5232V19.5245Z" fill="#BEC2C9"/>
<path d="M87.2673 15.6624C87.2673 15.2333 87.6249 14.9473 87.9825 14.9473C88.3401 14.9473 88.6261 15.2333 88.6261 15.5909C88.6261 16.02 88.3401 16.3061 87.911 16.3061C87.6249 16.3061 87.2673 16.02 87.2673 15.6624ZM87.8394 19.5959C87.8394 19.1668 87.7679 18.9523 87.1243 18.8092C87.0527 18.8092 86.9812 18.8092 86.9812 18.7377V18.5947C86.9812 18.5947 86.9812 18.5231 87.0527 18.5231C87.5534 18.3801 87.9825 18.1656 88.4116 17.8795C88.4831 17.808 88.5546 17.808 88.6261 17.808C88.6976 17.808 88.6977 17.8795 88.6977 17.951C88.6977 18.1656 88.6977 19.0238 88.6977 20.0965V21.5269C88.6977 22.0275 88.6977 22.5281 88.6977 22.6712C88.6977 22.8142 88.7692 23.0288 88.9122 23.0288H89.4843C89.5559 23.0288 89.6274 23.0288 89.6274 23.1718V23.3863C89.6274 23.4579 89.6274 23.5294 89.4843 23.5294C89.3413 23.5294 88.8407 23.5294 88.2685 23.5294C87.5534 23.5294 87.0527 23.5294 86.9097 23.5294C86.7667 23.5294 86.8382 23.5294 86.8382 23.4579V23.1718C86.8382 23.1003 86.9097 23.0288 86.9812 23.0288H87.6249C87.7679 23.0288 87.8394 22.9572 87.8394 22.7427C87.8394 22.3851 87.8394 21.956 87.8394 21.5984V19.5959Z" fill="#BEC2C9"/>
<path d="M91.0598 18.5947H90.2016C90.1301 18.5947 90.1301 18.5947 90.1301 18.4517L90.2016 18.0941C90.2016 18.0226 90.2731 18.0226 90.3447 18.0226H91.0598V17.7365C90.9883 16.7352 91.2744 15.8055 91.9181 15.0188C92.4187 14.3752 93.2054 14.0176 93.9921 14.0176C94.5642 14.0176 95.1364 14.2321 95.1364 14.7328C95.1364 15.0188 94.9218 15.2334 94.5642 15.3049C94.4212 15.3049 94.3497 15.3049 94.2066 15.2334C94.0636 15.1619 93.9921 15.0188 93.9206 14.9473C93.7775 14.7328 93.563 14.6612 93.3484 14.6612C92.9908 14.6612 92.6332 14.8043 92.4187 15.0903C91.9181 15.734 91.9896 16.8068 91.9896 17.7365V18.0226H93.4914C93.563 18.0226 93.563 18.0941 93.563 18.1656L93.4914 18.5947C93.4914 18.6662 93.4199 18.6662 93.3484 18.6662H91.9181V19.8105C91.9181 21.3124 91.9181 22.5282 91.9181 22.6712C91.9181 22.8142 91.9896 23.0288 92.2756 23.0288H92.9908C93.1339 23.0288 93.1339 23.0288 93.1339 23.1718V23.3864C93.1339 23.4579 93.1339 23.5294 93.0623 23.5294C92.9908 23.5294 92.4902 23.5294 91.5605 23.5294C90.8453 23.5294 90.2016 23.5294 90.1301 23.5294C90.0586 23.5294 90.0586 23.5294 90.0586 23.4579V23.1718C90.0586 23.1003 90.0586 23.1003 90.2016 23.1003H90.7738C90.9883 23.1003 91.0598 22.9573 91.0598 22.6712V18.5947Z" fill="#BEC2C9"/>
<path d="M97.4248 20.525C97.4248 19.0946 96.4235 18.1649 95.7799 18.1649C95.4223 18.1649 95.0647 18.3079 94.7786 18.594C94.278 19.1662 93.9919 19.8813 94.135 20.668C94.0635 21.3117 94.278 21.9553 94.6356 22.456C94.9217 22.8851 95.3508 23.1711 95.9229 23.0996C96.7811 23.1711 97.4248 21.9553 97.4248 20.525ZM93.7774 22.6705C92.7046 21.4547 92.8477 19.5953 94.0635 18.5225L94.135 18.451C95.1362 17.5928 96.6381 17.6643 97.6393 18.594C98.7836 19.7383 98.7836 21.5262 97.6393 22.6705C97.1387 23.1711 96.4236 23.5287 95.7084 23.5287C94.9217 23.5287 94.278 23.1711 93.7774 22.6705Z" fill="#BEC2C9"/>
<path d="M99.4246 19.9536C99.4246 19.3099 99.3531 19.1669 98.9955 18.9524L98.781 18.8093C98.7094 18.8093 98.7094 18.8093 98.7094 18.7378V18.6663C98.7094 18.5948 98.7094 18.5948 98.781 18.5232L100.068 17.8796C100.14 17.8796 100.211 17.8081 100.211 17.8081C100.283 17.8081 100.283 17.8796 100.283 17.9511L100.354 18.8093H100.426C100.712 18.2372 101.284 17.8081 101.928 17.665C102.214 17.665 102.5 17.8796 102.571 18.1657V18.2372C102.571 18.5233 102.357 18.8093 102.071 18.8808C101.928 18.8808 101.785 18.8093 101.713 18.8093C101.57 18.7378 101.427 18.7378 101.284 18.7378C100.998 18.8093 100.712 18.9524 100.569 19.3099C100.497 19.453 100.426 19.596 100.426 19.7391V22.4567C100.426 22.8858 100.497 22.9573 100.783 22.9573H101.356C101.427 22.9573 101.427 23.0289 101.427 23.1004V23.3149C101.427 23.3864 101.427 23.458 101.356 23.458C101.284 23.458 100.712 23.458 99.9968 23.458C99.2816 23.458 98.7094 23.458 98.6379 23.458C98.5664 23.458 98.5664 23.458 98.5664 23.3149V23.1004C98.5664 23.0289 98.5664 22.9573 98.7094 22.9573H99.2101C99.4246 22.9573 99.4961 22.8858 99.4961 22.7428C99.4961 22.3137 99.4961 21.8846 99.4961 21.1694L99.4246 19.9536Z" fill="#BEC2C9"/>
<path d="M107.937 22.6707C107.937 22.8852 108.08 22.9568 108.223 22.9568H108.652C108.795 22.9568 108.795 23.0283 108.795 23.0998V23.3144C108.795 23.3859 108.795 23.4574 108.724 23.4574C108.652 23.4574 108.223 23.4574 107.508 23.4574C106.793 23.4574 106.435 23.4574 106.364 23.4574C106.292 23.4574 106.292 23.4574 106.292 23.3144V23.0998C106.292 23.0283 106.364 22.9568 106.435 22.9568H106.793C106.936 22.9568 107.007 22.8852 107.079 22.6707C107.15 22.4561 107.079 21.9555 107.079 21.5979V19.8815C107.079 19.3809 107.079 19.0233 106.721 18.7372C106.435 18.5227 106.149 18.4512 105.792 18.5227C105.362 18.5227 105.005 18.7372 104.79 19.0233C104.576 19.2378 104.504 19.5954 104.504 19.8815V22.5992C104.504 22.9568 104.576 23.0283 104.79 23.0283H105.076C105.148 23.0283 105.219 23.0998 105.219 23.1713V23.3859C105.219 23.4574 105.219 23.5289 105.148 23.5289C105.076 23.5289 104.719 23.5289 104.075 23.5289C103.432 23.5289 103.002 23.5289 102.931 23.5289C102.859 23.5289 102.859 23.5289 102.859 23.3859V23.1713C102.859 23.0998 102.859 23.0283 103.002 23.0283H103.36C103.503 23.0283 103.646 23.0283 103.646 22.7422V19.7385C103.646 19.3809 103.432 19.0948 103.145 18.9518L103.074 18.8803C103.002 18.8803 103.002 18.8087 103.002 18.7372V18.6657C103.002 18.5942 103.074 18.5227 103.145 18.5227L104.218 17.879C104.29 17.8075 104.361 17.8075 104.433 17.8075C104.504 17.8075 104.504 17.879 104.504 17.9505L104.576 18.7372C105.005 18.2366 105.649 17.879 106.292 17.8075C107.15 17.6645 108.009 18.3081 108.152 19.2378V19.3094V22.6707H107.937Z" fill="#BEC2C9"/>
<path d="M109.439 15.6624C109.439 15.2333 109.797 14.9473 110.154 14.9473C110.512 14.9473 110.798 15.2333 110.798 15.5909C110.798 16.02 110.512 16.3061 110.083 16.3061C109.797 16.3061 109.511 16.02 109.439 15.6624ZM110.011 19.5959C110.011 19.1668 109.94 18.9523 109.296 18.8092C109.225 18.8092 109.153 18.8092 109.153 18.7377V18.5947C109.153 18.5231 109.153 18.5231 109.225 18.5231C109.725 18.3086 110.154 18.1656 110.583 17.8795C110.655 17.808 110.726 17.808 110.798 17.808C110.87 17.808 110.87 17.8795 110.87 17.951C110.87 18.1656 110.87 19.0238 110.87 20.0965V21.5269C110.87 22.0275 110.87 22.5281 110.87 22.6712C110.87 22.8142 110.941 23.0288 111.084 23.0288H111.656C111.728 23.0288 111.799 23.0288 111.799 23.1718V23.3863C111.799 23.4579 111.799 23.5294 111.656 23.5294C111.513 23.5294 110.941 23.5294 110.44 23.5294C109.725 23.5294 109.225 23.5294 109.082 23.5294C108.939 23.5294 109.01 23.5294 109.01 23.4579V23.1718C109.01 23.1003 109.082 23.0288 109.153 23.0288H109.797C109.94 23.0288 110.011 22.9572 110.011 22.7427C110.011 22.3851 110.011 21.956 110.011 21.5984V19.5959Z" fill="#BEC2C9"/>
<path d="M114.948 20.5259C114.519 20.8835 113.232 21.1696 113.232 22.2424C113.16 22.5999 113.446 22.886 113.804 22.9575C113.875 22.9575 113.875 22.9575 113.947 22.9575C114.304 22.9575 114.948 22.5284 114.948 22.1708V20.5259ZM115.878 21.8133C115.878 22.5284 116.021 22.8145 116.235 22.8145C116.378 22.8145 116.593 22.743 116.665 22.5999C116.736 22.5284 116.736 22.5284 116.808 22.5284L116.951 22.5999C117.022 22.6715 117.022 22.6715 116.951 22.8145C116.808 23.1721 116.378 23.4582 115.949 23.4582C115.449 23.4582 115.091 23.0291 115.02 22.5999C114.662 22.9575 114.233 23.2436 113.732 23.3866C113.518 23.4582 113.232 23.4582 113.017 23.4582C112.731 23.4582 112.23 23.1721 112.23 22.3854C112.23 21.8133 112.517 21.3126 113.518 20.812C114.018 20.5975 114.519 20.3829 114.948 20.0968V19.3101C114.948 19.0956 114.877 18.8095 114.805 18.595C114.591 18.3804 114.304 18.3089 114.018 18.3089C113.732 18.3089 113.446 18.3804 113.232 18.595C113.089 18.738 113.16 18.9525 113.16 19.1671C113.16 19.5962 113.017 19.8823 112.517 19.8823C112.302 19.8823 112.23 19.7392 112.23 19.4532C112.302 18.9525 112.66 18.4519 113.089 18.2374C113.518 17.9513 114.09 17.8083 114.662 17.8083C115.02 17.7367 115.377 17.8798 115.663 18.1659C115.878 18.3804 116.021 18.738 115.949 19.0956L115.878 21.8133Z" fill="#BEC2C9"/>
<path d="M6.95408 13.8029H5.95283C5.8098 13.8029 5.73828 13.8029 5.73828 13.6599C5.73828 13.5883 5.73828 13.5168 5.88132 13.4453C5.88132 13.4453 5.88132 13.4453 5.95283 13.4453C5.95283 13.5168 5.95283 13.5883 5.95283 13.5883C5.95283 13.6599 6.02435 13.6599 6.16739 13.6599H7.24015C7.16863 13.8029 6.95408 13.8029 6.95408 13.8029Z" fill="#BEC2C9"/>
<path d="M6.6671 18.237H6.23799C6.16647 18.237 6.09496 18.237 6.02344 18.1655C6.02344 18.094 6.02344 18.0225 6.09496 18.0225V18.094C6.09496 18.1655 6.16647 18.1655 6.23799 18.1655H6.81013C6.81013 18.237 6.6671 18.237 6.6671 18.237Z" fill="#BEC2C9"/>
<path d="M7.31229 13.2307C7.52685 13.0161 7.59836 12.7301 7.52685 12.444C7.45533 12.1579 7.45533 11.8719 7.52685 11.5858L7.59836 11.4427H7.38381C7.24078 11.4427 7.09774 11.5858 6.9547 11.7288C6.74015 11.3712 6.45408 11.0852 6.02498 10.8706C6.16801 11.2997 6.16801 11.5143 6.09649 11.6573C5.95346 11.5143 5.7389 11.3712 5.52435 11.3712H5.38132L5.45283 11.4427C5.52435 11.6573 5.52435 11.9434 5.38132 12.0864C5.3098 12.2294 5.23828 12.444 5.23828 12.6585C5.23828 12.8731 5.3098 13.0877 5.52435 13.2307C5.45283 13.3022 5.38132 13.4452 5.38132 13.5883C5.38132 13.7313 5.45283 13.9459 5.59587 14.0174C5.66739 14.1604 5.7389 14.3035 5.88194 14.375L6.02498 17.6648C5.81042 17.7363 5.59587 17.9509 5.66739 18.1654C5.66739 18.38 5.88194 18.523 6.09649 18.523L6.16801 19.8818C6.16801 20.0964 6.31105 20.2394 6.5256 20.2394C6.74015 20.2394 6.88319 20.0964 6.88319 19.8818L6.9547 18.523C7.16926 18.523 7.31229 18.3084 7.31229 18.0939C7.31229 17.8793 7.16926 17.7363 6.9547 17.6648L7.09774 14.375C7.16926 14.3035 7.31229 14.1604 7.31229 14.0174C7.52685 13.8743 7.59836 13.5883 7.45533 13.3022C7.45533 13.3022 7.38381 13.2307 7.31229 13.2307ZM7.31229 11.6573C7.24078 11.9434 7.31229 12.2294 7.38381 12.444C7.45533 12.7301 7.38381 12.9446 7.09774 13.0877H6.74015C6.9547 12.8016 7.09774 12.5155 7.09774 12.1579C7.09774 12.0864 7.09774 12.0149 7.09774 11.8719V11.8003C7.16926 11.8003 7.24078 11.7288 7.31229 11.6573ZM6.38256 11.1567C6.66863 11.3712 6.88319 11.8003 6.9547 12.1579C6.9547 12.5155 6.74015 12.8016 6.5256 13.0877C6.45408 12.9446 6.38256 12.8016 6.38256 12.6585C6.38256 12.444 6.45408 12.301 6.5256 12.1579C6.38256 12.301 6.31105 12.444 6.23953 12.587C6.23953 12.7301 6.23953 12.9446 6.38256 13.0877H6.23953C6.02498 12.8731 6.02498 12.5155 6.16801 12.301C6.16801 12.2294 6.38256 12.0149 6.38256 11.9434C6.38256 11.8719 6.38256 11.8719 6.38256 11.8003L6.31105 11.8719C6.23953 11.9434 6.09649 12.0864 6.02498 12.1579C5.88194 12.5155 5.88194 12.8731 6.02498 13.0877H5.95346C5.81042 12.9446 5.7389 12.7301 5.81042 12.5155C5.7389 12.0149 6.45408 11.9434 6.38256 11.1567ZM5.38132 12.6585C5.38132 12.5155 5.45283 12.301 5.52435 12.1579C5.66739 11.9434 5.66739 11.7288 5.66739 11.5143C5.81042 11.5858 5.88194 11.6573 5.95346 11.7288C5.88194 11.8003 5.81042 11.8719 5.81042 11.9434C5.52435 12.2294 5.45283 12.7301 5.7389 13.0877V13.0877C5.52435 13.0877 5.38132 12.8731 5.38132 12.6585ZM6.59712 19.8818C6.59712 19.9533 6.5256 20.0249 6.45408 20.0249C6.38256 20.0249 6.31105 19.9533 6.31105 19.8818L6.23953 18.5945H6.31105L6.38256 19.8818C6.38256 19.9533 6.45408 20.0249 6.45408 20.0249V18.666H6.74015L6.59712 19.8818ZM7.02622 18.0939C7.02622 18.2369 6.9547 18.3084 6.81167 18.3084H6.09649C5.95346 18.3084 5.88194 18.1654 5.88194 18.0939C5.88194 18.0224 5.95346 17.8793 6.09649 17.8793H6.81167C6.9547 17.8793 7.02622 18.0224 7.02622 18.0939ZM6.02498 14.4465H6.16801L6.31105 17.6648H6.16801L6.02498 14.4465ZM6.31105 14.4465C6.45408 14.4465 6.66863 14.4465 6.88319 14.4465L6.74015 17.6648H6.38256L6.31105 14.4465ZM6.81167 14.2319H6.09649C5.95346 14.2319 5.88194 14.1604 5.81042 14.0889H7.09774C7.02622 14.1604 6.88319 14.2319 6.81167 14.2319ZM7.09774 13.8743H5.7389C5.59587 13.8743 5.45283 13.7313 5.52435 13.5883C5.52435 13.4452 5.59587 13.3022 5.7389 13.3022H7.09774C7.24078 13.3022 7.38381 13.4452 7.31229 13.6598C7.31229 13.7313 7.24078 13.8743 7.09774 13.8743Z" fill="#BEC2C9"/>
<path d="M15.0334 13.8029H14.0322C13.8891 13.8029 13.8176 13.8029 13.7461 13.6599C13.7461 13.5883 13.7461 13.4453 13.8891 13.4453C13.8891 13.5168 13.8891 13.5883 13.8891 13.5883C13.8891 13.6599 13.9606 13.6599 14.1037 13.6599H15.1764C15.1764 13.8029 15.0334 13.8029 15.0334 13.8029Z" fill="#BEC2C9"/>
<path d="M14.7503 18.237H14.2497C14.1782 18.237 14.1067 18.237 14.0352 18.1655C14.0352 18.094 14.0352 18.0225 14.1067 18.0225V18.094C14.1067 18.1655 14.1782 18.1655 14.2497 18.1655H14.8219C14.8934 18.237 14.7503 18.237 14.7503 18.237Z" fill="#BEC2C9"/>
<path d="M15.3931 13.2307C15.6077 13.0161 15.6792 12.7301 15.6077 12.444C15.5362 12.1579 15.5362 11.8719 15.6077 11.5858L15.6792 11.4427H15.5362C15.3931 11.4427 15.2501 11.5858 15.107 11.7288C14.8925 11.3712 14.6064 11.0852 14.1773 10.8706C14.3204 11.2997 14.3204 11.5143 14.2488 11.6573C14.1058 11.5143 13.8912 11.3712 13.6767 11.3712H13.5337L13.6052 11.5143C13.6767 11.7288 13.6767 12.0149 13.5337 12.1579C13.4621 12.301 13.3906 12.5155 13.3906 12.7301C13.3906 12.9446 13.4621 13.1592 13.6767 13.3022C13.4621 13.5168 13.4621 13.8028 13.6767 14.0174L13.7482 14.0889C13.8197 14.2319 13.8912 14.375 14.0343 14.4465L14.1773 17.7363C13.9628 17.8078 13.8197 17.9509 13.8197 18.1654C13.8197 18.38 13.9628 18.5945 14.1773 18.5945L14.2488 19.9533C14.2488 20.1679 14.3919 20.3109 14.6064 20.3109C14.821 20.3109 14.964 20.1679 14.964 19.9533L15.0355 18.5945C15.2501 18.5945 15.3931 18.38 15.3931 18.1654C15.3931 17.9509 15.2501 17.8078 15.0355 17.7363L15.1786 14.4465C15.3216 14.375 15.3931 14.2319 15.4646 14.0889C15.6792 13.9459 15.7507 13.5883 15.6077 13.3737C15.4646 13.3022 15.4646 13.2307 15.3931 13.2307ZM15.3216 11.6573C15.2501 11.9434 15.3216 12.2294 15.3931 12.444C15.4646 12.7301 15.3931 12.9446 15.107 13.0877H14.7495C14.964 12.8016 15.107 12.5155 15.107 12.1579C15.107 12.0864 15.107 12.0149 15.107 11.8719V11.8003C15.2501 11.8003 15.3216 11.7288 15.3216 11.6573ZM14.4634 11.1567C14.7495 11.3712 14.964 11.8003 15.0355 12.1579C15.0355 12.5155 14.8925 12.8016 14.6064 13.0877C14.3919 12.8016 14.3919 12.444 14.6064 12.0864C14.4634 12.2294 14.3919 12.3725 14.3204 12.5155C14.3204 12.6585 14.3204 12.8731 14.4634 13.0161H14.3204C14.1058 12.8016 14.1058 12.444 14.2488 12.2294C14.2488 12.1579 14.4634 11.9434 14.4634 11.8719C14.4634 11.8003 14.4634 11.8003 14.4634 11.7288C14.4634 11.8003 14.3919 11.8003 14.3919 11.8003C14.3204 11.8719 14.1773 12.0149 14.1058 12.0864C13.8912 12.3725 13.8912 12.7301 14.1058 12.9446H13.9628C13.8197 12.8016 13.7482 12.587 13.8197 12.3725C13.8197 12.0149 14.5349 11.9434 14.4634 11.1567ZM13.4621 12.6585C13.4621 12.5155 13.5337 12.301 13.6052 12.1579C13.7482 11.9434 13.7482 11.7288 13.7482 11.5143C13.8912 11.5858 13.9628 11.6573 14.0343 11.7288L13.8912 11.9434C13.6052 12.2294 13.5337 12.7301 13.8197 13.0877C13.6052 13.0877 13.4621 12.8731 13.4621 12.6585ZM14.6779 19.8818C14.6779 19.9533 14.6779 20.0249 14.5349 20.0964C14.4634 20.0964 14.3919 20.0964 14.3204 19.9533V19.8818L14.2488 18.5945H14.3204L14.3919 19.8818C14.3919 19.9533 14.4634 20.0249 14.4634 20.0249V18.666H14.7495L14.6779 19.8818ZM15.107 18.0939C15.107 18.2369 15.0355 18.3084 14.8925 18.3084H14.1773C14.0343 18.3084 13.9628 18.1654 13.9628 18.0939C13.9628 17.9509 14.0343 17.8793 14.1773 17.8793H14.8925C15.0355 17.8793 15.107 17.9509 15.107 18.0939ZM14.1058 14.4465H14.2488L14.3919 17.6648H14.3204L14.1058 14.4465ZM14.3919 14.4465C14.5349 14.4465 14.7495 14.4465 14.964 14.4465L14.821 17.6648H14.4634L14.3919 14.4465ZM14.8925 14.2319H14.1773C14.0343 14.2319 13.9628 14.1604 13.8912 14.0889H15.1786C15.107 14.1604 15.0355 14.2319 14.8925 14.2319ZM15.2501 13.8743H13.8912C13.7482 13.8743 13.6052 13.7313 13.6767 13.5883C13.6767 13.4452 13.7482 13.3022 13.8912 13.3022H15.1786C15.3216 13.3022 15.4646 13.4452 15.3931 13.6598C15.3931 13.7313 15.3216 13.8743 15.2501 13.8743Z" fill="#BEC2C9"/>
<path d="M11.745 13.5171C12.0311 13.231 12.1741 12.8019 12.0311 12.4443C11.8881 12.0152 11.8881 11.5861 12.0311 11.157L12.1026 11.014H11.9596C11.745 11.0855 11.5305 11.2285 11.3874 11.3716C11.1729 10.9425 10.8153 10.5849 10.3862 10.2988L10.1716 10.1558L10.2431 10.4418C10.3147 10.6564 10.3147 10.8709 10.2431 11.0855C10.2431 11.157 10.1716 11.2285 10.1716 11.3C9.95707 11.0855 9.671 10.9425 9.38493 10.8709H9.2419L9.31341 11.014C9.45645 11.3 9.38493 11.6576 9.2419 11.9437C9.09886 12.1583 9.02734 12.4443 9.02734 12.7304C9.02734 13.0165 9.17038 13.3025 9.45645 13.5171C9.31341 13.6601 9.2419 13.8032 9.2419 14.0177C9.2419 14.2323 9.38493 14.4468 9.59949 14.5899C9.59949 14.8044 9.74252 14.9474 9.95707 15.0905L10.1716 19.7391C9.671 19.8106 9.45645 20.0252 9.45645 20.3113C9.45645 20.5973 9.671 20.8119 9.95707 20.8834L10.0286 22.7429C10.0286 23.0289 10.2431 23.172 10.4577 23.172C10.7438 23.172 10.9583 22.9574 10.9583 22.7429L11.0298 20.8834C11.3159 20.8834 11.5305 20.5973 11.5305 20.3113C11.5305 20.0252 11.3159 19.8106 11.0298 19.7391L11.2444 15.0905C11.4589 15.019 11.602 14.8044 11.602 14.5899C11.888 14.4468 12.0311 14.0177 11.8165 13.7316C11.8881 13.6601 11.8165 13.5886 11.745 13.5171ZM11.745 11.3C11.6735 11.7292 11.6735 12.0867 11.8165 12.5158C11.9596 12.8734 11.8165 13.3025 11.4589 13.4456H10.8868C11.1729 13.088 11.3874 12.5874 11.3874 12.0867C11.3874 11.9437 11.3874 11.8007 11.3159 11.6576C11.4589 11.5146 11.602 11.4431 11.745 11.3ZM10.3862 11.2285C10.4577 11.0855 10.4577 10.8709 10.3862 10.6564C10.8868 11.014 11.1729 11.5146 11.2444 12.0867C11.2444 12.5874 11.0298 13.088 10.6722 13.4456C10.5292 13.231 10.4577 13.088 10.4577 12.8019C10.4577 12.5158 10.5292 12.3013 10.6722 12.0867C10.4577 12.2298 10.3147 12.4443 10.3147 12.7304C10.3147 12.9449 10.3147 13.231 10.4577 13.4456H10.2431C9.95707 13.088 9.95707 12.6589 10.1716 12.3013C10.2431 12.2298 10.4577 11.8722 10.4577 11.8007C10.4577 11.7292 10.4577 11.6576 10.4577 11.6576C10.3862 11.7291 10.3862 11.8007 10.3862 11.8007C10.3862 11.8007 10.1001 12.1583 10.0286 12.2298C9.74252 12.5874 9.74252 13.088 10.0286 13.4456H9.81404C9.45645 13.0165 9.45645 12.3728 9.88556 11.9437L10.0286 11.8007C10.1716 11.6576 10.2431 11.4431 10.3862 11.2285ZM9.02734 12.8019C9.02734 12.5874 9.09886 12.3013 9.2419 12.1583C9.45645 11.8722 9.52797 11.5146 9.45645 11.2285C9.671 11.3 9.88556 11.3716 10.0286 11.5861L9.88556 11.7291L9.74252 11.8722C9.31341 12.3013 9.2419 13.0165 9.59949 13.5171H9.52797C9.2419 13.3741 9.09886 13.088 9.02734 12.8019ZM10.1716 15.2335L10.3862 19.8106H10.1716L9.95707 15.2335H10.1716ZM10.8153 22.7429C10.8153 22.8859 10.6722 23.0289 10.5292 23.0289C10.3862 23.0289 10.2431 22.8859 10.2431 22.7429L10.1716 20.8834H10.3147L10.3862 22.6713C10.3862 22.8144 10.4577 22.8144 10.4577 22.8144V20.8119H10.8868L10.8153 22.7429ZM11.4589 20.3113C11.4589 20.5258 11.3159 20.6689 11.1014 20.6689H10.0286C9.81404 20.6689 9.671 20.5258 9.671 20.3113C9.671 20.0967 9.81404 19.9537 10.0286 19.9537H11.0298C11.2444 19.9537 11.4589 20.1682 11.4589 20.3113ZM10.9583 19.7391H10.4577L10.3862 15.162H11.1729L10.9583 19.7391ZM11.1014 15.019H10.0286C9.88556 15.019 9.671 14.9474 9.671 14.7329H11.5305C11.3874 14.9474 11.2444 15.019 11.1014 15.019ZM11.4589 14.5899H9.671C9.45645 14.5899 9.2419 14.3753 9.2419 14.1607C9.2419 13.9462 9.45645 13.7316 9.671 13.7316H11.5305C11.745 13.8032 11.8881 14.0177 11.8165 14.2323C11.8165 14.3753 11.602 14.5183 11.4589 14.5899Z" fill="#BEC2C9"/>
<path d="M9.52705 14.0888C9.45554 14.0173 9.45554 13.8743 9.52705 13.8027C9.38402 13.8027 9.3125 13.9458 9.3125 14.0888C9.3125 14.0888 9.3125 14.0888 9.3125 14.1603C9.38402 14.3749 9.52705 14.3749 9.67009 14.3749H11.2435C11.3865 14.3749 11.458 14.3034 11.5295 14.2318H9.74161C9.67009 14.2318 9.59857 14.2318 9.52705 14.0888Z" fill="#BEC2C9"/>
<path d="M9.95625 20.3825C9.88473 20.311 9.88473 20.2395 9.95625 20.168C9.81321 20.168 9.7417 20.311 9.81321 20.3825C9.88473 20.5256 9.95625 20.5971 10.0993 20.5971H10.9575C11.029 20.5971 11.1005 20.5256 11.172 20.454H10.1708C10.0278 20.454 9.95625 20.454 9.95625 20.3825Z" fill="#BEC2C9"/>
<path d="M20.1848 5.57838V5.00623C20.1848 4.43409 20.1132 3.86195 19.9702 3.28981L19.8987 2.86071C19.8987 2.64615 19.8272 2.4316 19.7557 2.21705V2.07401L19.6126 2.14553C19.3981 2.21705 19.112 2.28856 18.8259 2.28856L17.6816 2.4316C17.4671 2.4316 17.2525 2.4316 16.9665 2.4316C16.3228 2.4316 15.6792 2.36008 15.0355 2.28856L14.6064 2.14553C14.3203 2.07401 14.0342 2.00249 13.8197 1.93098L13.3191 1.71642C12.6039 1.43035 12.0318 1.14428 11.4596 0.715176L10.959 0.357588L10.6729 0.0715176L10.5299 0L10.3868 0.143035C10.3153 0.214553 10.2438 0.286071 10.1008 0.357588L9.60015 0.715176C9.02801 1.07276 8.45587 1.43035 7.81221 1.71642L7.31159 1.93098C7.02552 2.00249 6.81096 2.07401 6.52489 2.14553L6.02427 2.28856C5.45213 2.36008 4.87999 2.4316 4.30785 2.4316C4.02178 2.4316 3.73571 2.4316 3.44964 2.4316L2.30535 2.28856C1.80473 2.21705 1.59018 2.14553 1.59018 2.14553L1.30411 2.07401V2.21705C1.30411 2.36008 1.23259 2.57464 1.23259 2.71767L1.08955 3.28981C1.01804 3.86195 0.946518 4.43409 0.946518 4.93472V5.50686C0.875 5.86445 0.875 6.15052 0.875 6.43659V7.00873C0.875 7.93846 0.946518 8.93971 1.08955 9.86943C1.37562 11.9434 1.94776 13.8744 2.73446 15.8054C3.95026 18.8091 6.23882 22.8856 10.3868 25.4603L10.5299 25.6033L10.6729 25.4603C14.8209 22.8856 17.1095 18.8091 18.2538 15.8054C19.0405 13.8744 19.5411 11.8719 19.8987 9.86943C20.0417 8.93971 20.1132 7.93846 20.1132 7.00873V6.43659C20.1848 6.15052 20.1848 5.86445 20.1848 5.57838ZM15.7507 9.86943L15.6792 9.7264C15.25 9.86943 14.8209 9.94095 14.3203 9.94095C13.5336 9.94095 12.7469 9.79792 11.9602 9.51185C11.6742 9.36881 11.3166 9.29729 11.0305 9.22578C10.7444 9.15426 10.3868 9.15426 10.1008 9.22578C9.74319 9.29729 9.3856 9.36881 9.02801 9.51185C8.31283 9.86943 7.52614 10.0125 6.73945 10.0125C6.16731 9.94095 5.59516 9.86943 5.02302 9.65488L4.95151 9.79792L5.02302 9.65488L4.5224 9.51185L4.30785 9.44033C3.87874 9.29729 3.44964 9.22578 3.02053 9.22578C2.44839 9.22578 1.94776 9.36881 1.44714 9.65488C1.44714 9.58336 1.44714 9.44033 1.37562 9.29729C1.87625 9.01122 2.44839 8.86819 3.02053 8.86819C3.44964 8.86819 3.87874 8.93971 4.23633 9.01122L4.87999 9.22578L4.95151 9.08274L4.87999 9.22578C5.45213 9.44033 6.09579 9.51185 6.66793 9.58336C7.52614 9.58336 8.31284 9.44033 9.17105 9.15426C9.45712 9.01122 9.81471 8.9397 10.1723 8.86819H10.5299L11.0305 8.93971C11.3166 9.01122 11.6026 9.08274 11.8887 9.15426C12.6754 9.44033 13.5336 9.58336 14.3918 9.58336C14.8925 9.58336 15.3931 9.51185 15.8222 9.29729L16.6089 9.08274L16.895 9.01122C17.3241 8.93971 17.7532 8.86819 18.1823 8.86819C18.7544 8.86819 19.3266 9.01122 19.8272 9.29729C19.8272 9.44033 19.8272 9.58336 19.7557 9.65488C19.255 9.44033 18.7544 9.29729 18.1823 9.29729C17.7532 9.29729 17.2525 9.36881 16.8234 9.51185L16.5374 9.58336L15.7507 9.79792V9.86943ZM6.73945 8.79667C7.31159 8.79667 7.81221 8.72515 8.31283 8.58212C8.59891 8.5106 8.88498 8.43908 9.17105 8.29605C9.45712 8.15301 9.81471 8.08149 10.1723 8.00998H10.5299L11.0305 8.08149C11.3166 8.15301 11.6026 8.22453 11.8887 8.29605C12.2463 8.43908 12.6039 8.5106 12.9615 8.58212C13.4621 8.65363 13.8912 8.72515 14.3918 8.72515C14.8925 8.72515 15.3931 8.65363 15.8222 8.43908L16.6089 8.22453L16.895 8.15301C17.3241 8.00998 17.7532 8.00998 18.1823 8.00998C18.7544 8.00998 19.3266 8.15301 19.8987 8.43908C19.8987 8.58212 19.8987 8.72515 19.8987 8.79667C19.3981 8.5106 18.8259 8.36756 18.2538 8.36756C17.8247 8.36756 17.3241 8.43908 16.895 8.5106L16.6089 8.58212L15.8222 8.79667C15.3931 8.93971 14.964 9.01122 14.4634 9.01122C13.6767 9.01122 12.89 8.86819 12.1033 8.58212L11.6026 8.65363C11.4596 8.58212 11.2451 8.58212 11.102 8.5106C10.8875 8.5106 10.7444 8.43908 10.5299 8.43908C10.3868 8.43908 10.2438 8.43908 10.1008 8.43908C9.88622 8.43908 9.67167 8.5106 9.52864 8.58212L9.02801 8.72515C8.24132 9.01122 7.45462 9.15426 6.66793 9.15426C6.09579 9.08274 5.52365 9.01122 4.95151 8.79667L4.30785 8.58212C3.87874 8.5106 3.44964 8.43908 3.02053 8.43908C2.44839 8.43908 1.87625 8.58212 1.37562 8.86819C1.37562 8.72515 1.37562 8.65363 1.30411 8.5106C1.80473 8.22453 2.37687 8.08149 3.02053 8.08149C3.44964 8.08149 3.87874 8.15301 4.23633 8.22453L4.87999 8.43908L4.95151 8.29605L4.87999 8.43908C5.52365 8.65363 6.09579 8.79667 6.73945 8.79667ZM10.5299 7.72391C10.3868 7.72391 10.2438 7.72391 10.1008 7.72391C9.74319 7.79542 9.3856 7.86694 9.02801 8.00998C8.38435 8.22453 7.66918 8.36756 6.954 8.43908C7.16855 6.65114 8.67042 5.22079 10.5299 5.29231C12.3178 5.29231 13.8912 6.65114 14.1058 8.43908C13.3906 8.43908 12.6754 8.29605 12.0318 8.00998C11.7457 7.86694 11.4596 7.79542 11.102 7.72391C10.959 7.72391 10.7444 7.72391 10.5299 7.72391ZM15.8222 8.36756L15.7507 8.22453C15.3216 8.36756 14.8925 8.43908 14.4634 8.43908C14.3918 8.08149 14.3203 7.7239 14.1773 7.43783L19.8987 7.00873C19.8987 7.43783 19.8987 7.79542 19.8272 8.08149C19.3266 7.79542 18.6829 7.72391 18.1108 7.72391C17.6816 7.72391 17.181 7.79542 16.7519 7.86694L16.4658 7.93846L15.6792 8.15301L15.8222 8.36756ZM19.8987 6.43659L14.1058 7.22328C14.0342 7.15176 14.0342 7.00873 13.9627 6.93721L19.8987 5.64989C19.8987 5.86445 19.8987 6.15052 19.8987 6.43659ZM19.6126 3.36133C19.6841 3.93347 19.7557 4.50561 19.7557 5.00623L13.7482 6.72266C13.7482 6.57962 13.6051 6.43659 13.4621 6.29355L19.6126 3.36133ZM18.1108 2.64615C18.5399 2.57464 18.969 2.50312 19.4696 2.4316L19.5411 2.78919L13.3906 6.15052L13.176 5.93596L18.1108 2.64615ZM15.0355 2.57463C15.6792 2.71767 16.3228 2.71767 16.9665 2.71767H17.181L13.033 5.86445C12.89 5.72141 12.6754 5.57838 12.5324 5.50686L15.0355 2.57463ZM13.6051 2.21705C13.9627 2.36008 14.2488 2.4316 14.3918 2.4316L12.2463 5.36382L11.8887 5.22079L13.6051 2.21705ZM11.3881 1.14428C11.8887 1.50187 12.4609 1.78794 13.1045 2.07401L11.6742 5.14927C11.3881 5.00623 11.1735 5.00623 10.8875 4.93472L11.3881 1.14428ZM10.5299 0.429106C10.6729 0.500624 10.816 0.643659 10.8875 0.715176L10.6729 4.93472H10.3868L10.1723 0.786694C10.3153 0.643659 10.4584 0.572141 10.5299 0.429106ZM9.67167 1.14428L10.1723 4.93472C9.88622 4.93472 9.60015 5.00623 9.3856 5.07775L7.95525 2.00249C8.52739 1.78794 9.09953 1.50187 9.67167 1.14428ZM7.45462 2.21705L9.09953 5.22079C8.95649 5.29231 8.88498 5.29231 8.74194 5.36382L6.59641 2.4316C6.954 2.36008 7.16855 2.28856 7.45462 2.21705ZM4.23633 2.78919C4.80847 2.78919 5.45213 2.71767 6.02427 2.64615L8.52739 5.50686C8.38435 5.57838 8.1698 5.72141 8.02676 5.86445L3.87874 2.78919H4.23633ZM1.59018 2.50312C2.01928 2.57464 2.44839 2.64615 2.87749 2.71767L7.88373 6.00748C7.81221 6.079 7.74069 6.079 7.74069 6.15052L1.51866 2.78919L1.59018 2.50312ZM1.44714 3.43285L7.59766 6.36507C7.45462 6.43659 7.38311 6.57962 7.24007 6.79418L1.23259 5.07775C1.23259 4.50561 1.37562 4.00499 1.44714 3.43285ZM1.23259 5.64989L7.16855 7.00873C7.09704 7.08025 7.02552 7.15176 7.02552 7.22328L1.23259 6.43659C1.23259 6.15052 1.23259 5.86445 1.23259 5.64989ZM6.88248 7.43783C6.73945 7.79542 6.66793 8.08149 6.59641 8.43908C6.02427 8.36756 5.52365 8.29605 4.95151 8.08149L4.30785 7.86694C3.87874 7.72391 3.44964 7.72391 3.02053 7.72391C2.44839 7.72391 1.80473 7.86694 1.23259 8.15301C1.23259 7.79542 1.16107 7.43783 1.16107 7.00873L6.88248 7.43783ZM18.0392 15.6624C16.895 18.5946 14.6064 22.5996 10.5299 25.1027C6.52489 22.5996 4.23633 18.5946 3.09205 15.6624C2.37687 13.8744 1.80473 11.9434 1.51866 10.0125C1.94776 9.7264 2.51991 9.58336 3.09205 9.58336C3.52115 9.58336 3.95026 9.65488 4.30785 9.7264L4.45088 9.79792L4.95151 9.94095C5.52365 10.1555 6.09579 10.227 6.73945 10.2985C7.59766 10.2985 8.45587 10.1555 9.24256 9.86943C9.52864 9.7264 9.88622 9.65488 10.1723 9.58336H10.5299L11.0305 9.65488C11.3166 9.7264 11.6026 9.79792 11.8887 9.86943C12.6754 10.1555 13.5336 10.2985 14.3918 10.2985C14.8925 10.2985 15.3931 10.1555 15.8222 10.0125L16.6089 9.79792L16.895 9.7264C17.3241 9.65488 17.7532 9.58336 18.1823 9.58336C18.6829 9.58336 19.255 9.7264 19.6841 10.0125C19.3266 11.9434 18.7544 13.8029 18.0392 15.6624Z" fill="#BEC2C9"/>
</svg>
